<?xml version="1.0" encoding="UTF-8" standalone="no"?>
<!-- Created with Inkscape (http://www.inkscape.org/) -->

<svg
   version="1.1"
   id="svg1"
   width="488"
   height="414.66666"
   viewBox="0 0 488 414.66666"
   sodipodi:docname="avg_return_hu3 (1).eps"
   xmlns:inkscape="http://www.inkscape.org/namespaces/inkscape"
   xmlns:sodipodi="http://sodipodi.sourceforge.net/DTD/sodipodi-0.dtd"
   xmlns="http://www.w3.org/2000/svg"
   xmlns:svg="http://www.w3.org/2000/svg">
  <defs
     id="defs1" />
  <sodipodi:namedview
     id="namedview1"
     pagecolor="#ffffff"
     bordercolor="#000000"
     borderopacity="0.25"
     inkscape:showpageshadow="2"
     inkscape:pageopacity="0.0"
     inkscape:pagecheckerboard="0"
     inkscape:deskcolor="#d1d1d1">
    <inkscape:page
       x="0"
       y="0"
       inkscape:label="1"
       id="page1"
       width="488"
       height="414.66666"
       margin="0"
       bleed="0" />
  </sodipodi:namedview>
  <g
     id="g1"
     inkscape:groupmode="layer"
     inkscape:label="1">
    <path
       id="path1"
       d="M 0,0 H 3664.8 V 3110.4 H 0 Z"
       style="fill:#ffffff;fill-opacity:1;fill-rule:nonzero;stroke:none"
       transform="matrix(0.13333333,0,0,-0.13333333,0,414.66667)" />
    <path
       id="path2"
       d="m 338.859,326.469 h 3261.18 v 2549.31 H 338.859 Z"
       style="fill:#ffffff;fill-opacity:1;fill-rule:nonzero;stroke:none"
       transform="matrix(0.13333333,0,0,-0.13333333,0,414.66667)" />
    <path
       id="path3"
       d="M 338.916,-2875.3 V -326.415"
       style="fill:none;stroke:#dedede;stroke-width:4.96818;stroke-linecap:butt;stroke-linejoin:round;stroke-miterlimit:10;stroke-dasharray:none;stroke-opacity:1"
       transform="matrix(0.1333112,0,0,0.133356,0,414.66667)" />
    <path
       id="path4"
       d="M 991.258,-2875.3 V -326.415"
       style="fill:none;stroke:#dedede;stroke-width:4.96818;stroke-linecap:butt;stroke-linejoin:round;stroke-miterlimit:10;stroke-dasharray:none;stroke-opacity:1"
       transform="matrix(0.1333112,0,0,0.133356,0,414.66667)" />
    <path
       id="path5"
       d="M 1643.6,-2875.3 V -326.415"
       style="fill:none;stroke:#dedede;stroke-width:4.96818;stroke-linecap:butt;stroke-linejoin:round;stroke-miterlimit:10;stroke-dasharray:none;stroke-opacity:1"
       transform="matrix(0.1333112,0,0,0.133356,0,414.66667)" />
    <path
       id="path6"
       d="M 2295.94,-2875.3 V -326.415"
       style="fill:none;stroke:#dedede;stroke-width:4.96818;stroke-linecap:butt;stroke-linejoin:round;stroke-miterlimit:10;stroke-dasharray:none;stroke-opacity:1"
       transform="matrix(0.1333112,0,0,0.133356,0,414.66667)" />
    <path
       id="path7"
       d="M 2948.29,-2875.3 V -326.415"
       style="fill:none;stroke:#dedede;stroke-width:4.96818;stroke-linecap:butt;stroke-linejoin:round;stroke-miterlimit:10;stroke-dasharray:none;stroke-opacity:1"
       transform="matrix(0.1333112,0,0,0.133356,0,414.66667)" />
    <path
       id="path8"
       d="M 3600.63,-2875.3 V -326.415"
       style="fill:none;stroke:#dedede;stroke-width:4.96818;stroke-linecap:butt;stroke-linejoin:round;stroke-miterlimit:10;stroke-dasharray:none;stroke-opacity:1"
       transform="matrix(0.1333112,0,0,0.133356,0,414.66667)" />
    <path
       id="path9"
       d="M 338.916,-326.415 H 3600.63"
       style="fill:none;stroke:#dedede;stroke-width:4.96818;stroke-linecap:butt;stroke-linejoin:round;stroke-miterlimit:10;stroke-dasharray:none;stroke-opacity:1"
       transform="matrix(0.1333112,0,0,0.133356,0,414.66667)" />
    <path
       id="path10"
       d="M 338.916,-645.026 H 3600.63"
       style="fill:none;stroke:#dedede;stroke-width:4.96818;stroke-linecap:butt;stroke-linejoin:round;stroke-miterlimit:10;stroke-dasharray:none;stroke-opacity:1"
       transform="matrix(0.1333112,0,0,0.133356,0,414.66667)" />
    <path
       id="path11"
       d="M 338.916,-963.637 H 3600.63"
       style="fill:none;stroke:#dedede;stroke-width:4.96818;stroke-linecap:butt;stroke-linejoin:round;stroke-miterlimit:10;stroke-dasharray:none;stroke-opacity:1"
       transform="matrix(0.1333112,0,0,0.133356,0,414.66667)" />
    <path
       id="path12"
       d="M 338.916,-1282.25 H 3600.63"
       style="fill:none;stroke:#dedede;stroke-width:4.96818;stroke-linecap:butt;stroke-linejoin:round;stroke-miterlimit:10;stroke-dasharray:none;stroke-opacity:1"
       transform="matrix(0.1333112,0,0,0.133356,0,414.66667)" />
    <path
       id="path13"
       d="M 338.916,-1600.86 H 3600.63"
       style="fill:none;stroke:#dedede;stroke-width:4.96818;stroke-linecap:butt;stroke-linejoin:round;stroke-miterlimit:10;stroke-dasharray:none;stroke-opacity:1"
       transform="matrix(0.1333112,0,0,0.133356,0,414.66667)" />
    <path
       id="path14"
       d="M 338.916,-1919.47 H 3600.63"
       style="fill:none;stroke:#dedede;stroke-width:4.96818;stroke-linecap:butt;stroke-linejoin:round;stroke-miterlimit:10;stroke-dasharray:none;stroke-opacity:1"
       transform="matrix(0.1333112,0,0,0.133356,0,414.66667)" />
    <path
       id="path15"
       d="M 338.916,-2238.08 H 3600.63"
       style="fill:none;stroke:#dedede;stroke-width:4.96818;stroke-linecap:butt;stroke-linejoin:round;stroke-miterlimit:10;stroke-dasharray:none;stroke-opacity:1"
       transform="matrix(0.1333112,0,0,0.133356,0,414.66667)" />
    <path
       id="path16"
       d="M 338.916,-2556.69 H 3600.63"
       style="fill:none;stroke:#dedede;stroke-width:4.96818;stroke-linecap:butt;stroke-linejoin:round;stroke-miterlimit:10;stroke-dasharray:none;stroke-opacity:1"
       transform="matrix(0.1333112,0,0,0.133356,0,414.66667)" />
    <path
       id="path17"
       d="M 338.916,-2875.3 H 3600.63"
       style="fill:none;stroke:#dedede;stroke-width:4.96818;stroke-linecap:butt;stroke-linejoin:round;stroke-miterlimit:10;stroke-dasharray:none;stroke-opacity:1"
       transform="matrix(0.1333112,0,0,0.133356,0,414.66667)" />
    <g
       id="g17"
       aria-label="TrainingIteration[×10"
       transform="matrix(1.3333333,0,0,1.3337761,174.63067,408.91145)">
      <path
         id="path18"
         d="M 8.0494609,-8.1896592 H 0.66664844 l -0.234375,2.7178474 h 0.3046875 c 0.1640625,-1.9446667 0.35156246,-2.3429719 2.17968746,-2.3429719 0.2109375,0 0.5273438,0 0.6445313,0.02343 0.2578125,0.04686 0.2578125,0.1757229 0.2578125,0.4568795 v 6.37288354 c 0,0.42173494 0,0.58574297 -1.265625,0.58574297 H 2.0611797 V -9.7248953e-4 C 2.5650859,-0.03611707 3.7955547,-0.03611707 4.3580547,-0.03611707 c 0.5507812,0 1.7929687,0 2.296875,0.0351445805 V -0.37584799 H 6.1627422 c -1.265625,0 -1.265625,-0.16400803 -1.265625,-0.58574297 V -7.3344745 c 0,-0.246012 0,-0.41002 0.2226562,-0.4568795 0.1289063,-0.02343 0.4570313,-0.02343 0.6796875,-0.02343 1.828125,0 2.015625,0.3983052 2.1796875,2.3429719 h 0.3046875 z m 1.7695313,7.2397831 v -1.8626626 c 0,-1.1949157 0.5039058,-2.2726828 1.4179688,-2.2726828 0.09375,0 0.117187,0 0.140625,0.011715 -0.03516,0.011715 -0.28125,0.164008 -0.28125,0.4685944 0,0.3397309 0.257812,0.5271686 0.515625,0.5271686 0.222656,0 0.527344,-0.1522931 0.527344,-0.5388835 0,-0.3865903 -0.375,-0.7380361 -0.902344,-0.7380361 -0.878906,0 -1.3125001,0.8200401 -1.4882813,1.3354939 v -1.3354939 l -1.6757813,0.1405783 v 0.3748755 c 0.84375,0 0.9375,0.082004 0.9375,0.6794618 v 3.23330122 c 0,0.55059839 -0.1289062,0.55059839 -0.9375,0.55059839 V -9.7248953e-4 C 8.5416484,-0.01268735 9.1158672,-0.03611707 9.4557109,-0.03611707 c 0.4804688,0 1.0429691,0 1.5351561,0.0351445805 V -0.37584799 h -0.257812 c -0.8906253,0 -0.9140628,-0.12886345 -0.9140628,-0.57402811 z m 6.6796878,0.0234297 c 0.04687,0.49202409 0.375,0.99576305 0.9375,0.99576305 0.257812,0 0.996093,-0.16400803 0.996093,-1.14805625 v -0.6794618 h -0.304687 v 0.6794618 c 0,0.70289159 -0.304688,0.77318075 -0.433594,0.77318075 -0.398437,0 -0.445312,-0.53888353 -0.445312,-0.59745783 V -3.3279926 c 0,-0.5037389 0,-0.9840481 -0.445313,-1.4292128 -0.46875,-0.4685944 -1.066406,-0.667747 -1.652344,-0.667747 -0.996093,0 -1.828125,0.5740281 -1.828125,1.3706386 0,0.3631606 0.246094,0.5623132 0.5625,0.5623132 0.339844,0 0.550782,-0.2342972 0.550782,-0.5505984 0,-0.1405783 -0.05859,-0.5505984 -0.609375,-0.5623132 0.316406,-0.421735 0.914062,-0.5505984 1.300781,-0.5505984 0.597656,0 1.277344,0.4685944 1.277344,1.5463614 v 0.4451647 c -0.609375,0.035145 -1.453125,0.082004 -2.214844,0.4451646 -0.914063,0.4100201 -1.21875,1.0309077 -1.21875,1.5697912 0,0.98404818 1.171875,1.27691966 1.933594,1.27691966 0.808593,0 1.359375,-0.48030923 1.59375,-1.05433736 z m -0.09375,-1.9798112 v 1.2066305 c 0,1.15977108 -0.867188,1.56979116 -1.40625,1.56979116 -0.597657,0 -1.089844,-0.4334498 -1.089844,-1.03090766 0,-0.667747 0.503906,-1.6752249 2.496094,-1.745514 z m 4.256836,-2.4484056 -1.699219,0.1405783 v 0.3748755 c 0.785156,0 0.902344,0.070289 0.902344,0.667747 v 3.24501602 c 0,0.55059839 -0.140625,0.55059839 -0.949219,0.55059839 V -9.7248953e-4 C 19.302391,-0.01268735 19.958641,-0.03611707 20.251609,-0.03611707 c 0.421875,0 0.84375,0.02342972 1.253907,0.0351445805 V -0.37584799 c -0.796875,0 -0.84375,-0.0585743 -0.84375,-0.52716867 z m 0.04687,-2.0969599 c 0,-0.3865903 -0.304688,-0.6443172 -0.644532,-0.6443172 -0.375,0 -0.644531,0.328016 -0.644531,0.6443172 0,0.3280161 0.269531,0.6326025 0.644531,0.6326025 0.339844,0 0.644532,-0.2460121 0.644532,-0.6326025 z m 2.504882,3.2918755 v 3.23330122 c 0,0.55059839 -0.140625,0.55059839 -0.949218,0.55059839 V -9.7248953e-4 C 22.68618,-0.01268735 23.307273,-0.03611707 23.635398,-0.03611707 c 0.304688,0 0.9375,0.02342972 1.347657,0.0351445805 V -0.37584799 c -0.808594,0 -0.9375,0 -0.9375,-0.55059839 V -3.1522697 c 0,-1.2534899 0.855468,-1.9329518 1.628906,-1.9329518 0.761719,0 0.890625,0.6560322 0.890625,1.3472089 v 2.81156622 c 0,0.55059839 -0.128906,0.55059839 -0.9375,0.55059839 V -9.7248953e-4 C 26.049461,-0.01268735 26.670555,-0.03611707 26.99868,-0.03611707 c 0.304687,0 0.9375,0.02342972 1.347656,0.0351445805 V -0.37584799 c -0.632813,0 -0.925781,0 -0.9375,-0.36316064 V -3.0468359 c 0,-1.0426225 0,-1.417498 -0.375,-1.8509478 -0.175781,-0.2108675 -0.574219,-0.4568795 -1.277344,-0.4568795 -0.878906,0 -1.453125,0.5271686 -1.78125,1.2769196 v -1.2769196 l -1.710937,0.1405783 v 0.3748755 c 0.84375,0 0.949218,0.082004 0.949218,0.6794618 z m 7.532227,-1.1949156 -1.699219,0.1405783 v 0.3748755 c 0.785157,0 0.902344,0.070289 0.902344,0.667747 v 3.24501602 c 0,0.55059839 -0.140625,0.55059839 -0.949219,0.55059839 V -9.7248953e-4 C 29.386375,-0.01268735 30.042625,-0.03611707 30.335594,-0.03611707 c 0.421875,0 0.84375,0.02342972 1.253906,0.0351445805 V -0.37584799 c -0.796875,0 -0.84375,-0.0585743 -0.84375,-0.52716867 z m 0.04687,-2.0969599 c 0,-0.3865903 -0.304687,-0.6443172 -0.644531,-0.6443172 -0.375,0 -0.644531,0.328016 -0.644531,0.6443172 0,0.3280161 0.269531,0.6326025 0.644531,0.6326025 0.339844,0 0.644531,-0.2460121 0.644531,-0.6326025 z m 2.507813,3.2918755 v 3.23330122 c 0,0.55059839 -0.140625,0.55059839 -0.949219,0.55059839 V -9.7248953e-4 C 32.773094,-0.01268735 33.394188,-0.03611707 33.722313,-0.03611707 c 0.304687,0 0.9375,0.02342972 1.347656,0.0351445805 V -0.37584799 c -0.808594,0 -0.9375,0 -0.9375,-0.55059839 V -3.1522697 c 0,-1.2534899 0.855469,-1.9329518 1.628906,-1.9329518 0.761719,0 0.890625,0.6560322 0.890625,1.3472089 v 2.81156622 c 0,0.55059839 -0.128906,0.55059839 -0.9375,0.55059839 V -9.7248953e-4 C 36.136375,-0.01268735 36.757469,-0.03611707 37.085594,-0.03611707 c 0.304687,0 0.9375,0.02342972 1.347656,0.0351445805 V -0.37584799 c -0.632812,0 -0.925781,0 -0.9375,-0.36316064 V -3.0468359 c 0,-1.0426225 0,-1.417498 -0.375,-1.8509478 -0.175781,-0.2108675 -0.574219,-0.4568795 -1.277344,-0.4568795 -0.878906,0 -1.453125,0.5271686 -1.78125,1.2769196 v -1.2769196 l -1.710937,0.1405783 v 0.3748755 c 0.84375,0 0.949219,0.082004 0.949219,0.6794618 z m 8.0625,2.0735301 c -1.054688,0 -1.054688,-1.2066305 -1.054688,-1.4877871 0,-0.3280161 0.01172,-0.7146064 0.199219,-1.0191928 0.09375,-0.1405783 0.375,-0.4803092 0.855469,-0.4803092 1.054687,0 1.054687,1.2066305 1.054687,1.4877871 0,0.3280161 -0.01172,0.7146065 -0.199219,1.0191928 -0.09375,0.1405783 -0.375,0.4803092 -0.855468,0.4803092 z m -1.195313,-0.093719 c 0.46875,0.3397309 0.960938,0.3748755 1.195313,0.3748755 1.125,0 1.957031,-0.831755 1.957031,-1.7689438 0,-0.4451647 -0.1875,-0.8903293 -0.492188,-1.1714859 0.433594,-0.4100201 0.867188,-0.4685944 1.089844,-0.4685944 0.02344,0 0.08203,0 0.117188,0.011715 -0.128907,0.04686 -0.1875,0.1757229 -0.1875,0.3280161 0,0.1991526 0.152343,0.3514458 0.351562,0.3514458 0.117188,0 0.351563,-0.093719 0.351563,-0.3631606 0,-0.2108675 -0.152344,-0.5974579 -0.621094,-0.5974579 -0.246094,0 -0.773438,0.070289 -1.289063,0.5740281 -0.503906,-0.3983052 -1.007812,-0.4451646 -1.277343,-0.4451646 -1.125,0 -1.957032,0.8434699 -1.957032,1.7689437 0,0.5388836 0.269532,0.9957631 0.5625,1.25349 -0.152343,0.1757229 -0.375,0.5740281 -0.375,0.995763 0,0.37487554 0.164063,0.84346992 0.539063,1.0777671 -0.726563,0.21086747 -1.113281,0.72632129 -1.113281,1.21834538 0,0.86689962 1.195312,1.53464662 2.671875,1.53464662 1.429687,0 2.683593,-0.6208876 2.683593,-1.55807634 0,-0.4334498 -0.164062,-1.04262248 -0.785156,-1.38235341 -0.644531,-0.33973092 -1.347656,-0.33973092 -2.085937,-0.33973092 -0.292969,0 -0.820313,0 -0.902344,-0.0117149 -0.386719,-0.0468594 -0.644531,-0.42173493 -0.644531,-0.80832523 0,-0.058574 0,-0.3280161 0.210937,-0.5740283 z m 1.535156,4.3930722 c -1.21875,0 -2.050781,-0.6208875 -2.050781,-1.25348992 0,-0.56231325 0.457031,-1.00747791 0.984375,-1.04262249 h 0.714844 c 1.042969,0 2.390625,0 2.390625,1.04262249 0,0.64431722 -0.855469,1.25348992 -2.039063,1.25348992 z m 9.782227,-9.5358955 c 0,-0.4334498 0.03516,-0.5740281 0.996094,-0.5740281 h 0.316406 v -0.3748755 c -0.421875,0.046859 -1.382813,0.046859 -1.839844,0.046859 -0.46875,0 -1.429687,0 -1.851562,-0.046859 v 0.3748755 h 0.316406 c 0.949219,0 0.984375,0.1405783 0.984375,0.5740281 v 6.3728835 c 0,0.44516466 -0.03516,0.57402811 -0.984375,0.57402811 H 49.106102 V -9.7248953e-4 C 49.527977,-0.03611707 50.488914,-0.03611707 50.945945,-0.03611707 c 0.46875,0 1.429688,0 1.851563,0.0351445805 V -0.37584799 h -0.316406 c -0.960938,0 -0.996094,-0.12886345 -0.996094,-0.57402811 z m 3.75,2.4835502 h 1.722656 V -5.2140849 H 55.235008 V -7.4399082 H 54.93032 c -0.01172,0.9840482 -0.375,2.2843976 -1.558593,2.331257 v 0.2694418 h 1.019531 v 3.3387349 c 0,1.48778715 1.125,1.62836546 1.558594,1.62836546 0.867187,0 1.207031,-0.85518473 1.207031,-1.62836546 v -0.6911767 h -0.304688 v 0.667747 c 0,0.8903293 -0.363281,1.35892368 -0.808593,1.35892368 -0.808594,0 -0.808594,-1.10119678 -0.808594,-1.31206428 z m 7.3125,2.0383855 c 0.269531,0 0.304687,0 0.304687,-0.246012 0,-1.2066305 -0.644531,-2.3781165 -2.15625,-2.3781165 -1.40625,0 -2.519531,1.25349 -2.519531,2.7647068 0,1.6166506 1.265625,2.78813656 2.660156,2.78813656 1.476563,0 2.015625,-1.33549396 2.015625,-1.56979116 0,-0.1171486 -0.09375,-0.1405783 -0.152343,-0.1405783 -0.105469,0 -0.128907,0.070289 -0.164063,0.164008 -0.421875,1.25348998 -1.511719,1.25348998 -1.628906,1.25348998 -0.597656,0 -1.089844,-0.36316064 -1.359375,-0.82004016 C 59.184227,-1.5590488 59.184227,-2.3556592 59.184227,-2.8008239 Z m -3.351563,-0.246012 c 0.07031,-1.8040884 1.078125,-2.1086747 1.5,-2.1086747 1.242188,0 1.359375,1.6283654 1.359375,2.1086747 z m 6.105469,2.0969598 v -1.8626626 c 0,-1.1949157 0.503906,-2.2726828 1.417969,-2.2726828 0.09375,0 0.117187,0 0.140625,0.011715 -0.03516,0.011715 -0.28125,0.164008 -0.28125,0.4685944 0,0.3397309 0.257812,0.5271686 0.515625,0.5271686 0.222656,0 0.527344,-0.1522931 0.527344,-0.5388835 0,-0.3865903 -0.375,-0.7380361 -0.902344,-0.7380361 -0.878906,0 -1.3125,0.8200401 -1.488281,1.3354939 V -5.3546633 L 63.55531,-5.214085 v 0.3748755 c 0.84375,0 0.9375,0.082004 0.9375,0.6794618 v 3.23330122 c 0,0.55059839 -0.128906,0.55059839 -0.9375,0.55059839 V -9.7248953e-4 C 64.02407,-0.01268735 64.598289,-0.03611707 64.938133,-0.03611707 c 0.480469,0 1.042969,0 1.535156,0.0351445805 V -0.37584799 h -0.257812 c -0.890625,0 -0.914063,-0.12886345 -0.914063,-0.57402811 z m 6.682617,0.0234297 c 0.04687,0.49202409 0.375,0.99576305 0.9375,0.99576305 0.257813,0 0.996094,-0.16400803 0.996094,-1.14805625 v -0.6794618 h -0.304687 v 0.6794618 c 0,0.70289159 -0.304688,0.77318075 -0.433594,0.77318075 -0.398438,0 -0.445313,-0.53888353 -0.445313,-0.59745783 V -3.3279926 c 0,-0.5037389 0,-0.9840481 -0.445312,-1.4292128 -0.46875,-0.4685944 -1.066406,-0.667747 -1.652344,-0.667747 -0.996094,0 -1.828125,0.5740281 -1.828125,1.3706386 0,0.3631606 0.246094,0.5623132 0.5625,0.5623132 0.339844,0 0.550781,-0.2342972 0.550781,-0.5505984 0,-0.1405783 -0.05859,-0.5505984 -0.609375,-0.5623132 0.316407,-0.421735 0.914063,-0.5505984 1.300782,-0.5505984 0.597656,0 1.277343,0.4685944 1.277343,1.5463614 v 0.4451647 c -0.609375,0.035145 -1.453125,0.082004 -2.214843,0.4451646 -0.914063,0.4100201 -1.21875,1.0309077 -1.21875,1.5697912 0,0.98404818 1.171875,1.27691966 1.933593,1.27691966 0.808594,0 1.359375,-0.48030923 1.59375,-1.05433756 z m -0.09375,-1.9798112 v 1.2066305 c 0,1.15977106 -0.867187,1.56979114 -1.40625,1.56979114 -0.597656,0 -1.089843,-0.4334498 -1.089843,-1.03090764 0,-0.667747 0.503906,-1.6752249 2.496093,-1.745514 z m 4.212891,-1.9329518 h 1.722656 v -0.3748755 h -1.722656 v -2.2258233 h -0.304688 c -0.01172,0.9840482 -0.375,2.2843976 -1.558593,2.331257 v 0.2694418 h 1.019531 v 3.3387349 c 0,1.48778713 1.125,1.62836544 1.558594,1.62836544 0.867187,0 1.207031,-0.85518473 1.207031,-1.62836544 v -0.6911767 h -0.304688 v 0.667747 c 0,0.89032928 -0.363281,1.35892366 -0.808593,1.35892366 -0.808594,0 -0.808594,-1.10119676 -0.808594,-1.31206426 z m 4.749023,-0.5154538 -1.699218,0.1405783 v 0.3748755 c 0.785156,0 0.902343,0.070289 0.902343,0.667747 v 3.245016 c 0,0.55059839 -0.140625,0.55059839 -0.949218,0.55059839 V -9.7248953e-4 C 79.49282,-0.01268735 80.14907,-0.03611707 80.442039,-0.03611707 c 0.421875,0 0.84375,0.02342972 1.253906,0.0351445805 V -0.37584799 c -0.796875,0 -0.84375,-0.0585743 -0.84375,-0.52716867 z m 0.04687,-2.0969599 c 0,-0.3865903 -0.304687,-0.6443172 -0.644531,-0.6443172 -0.375,0 -0.644531,0.328016 -0.644531,0.6443172 0,0.3280161 0.269531,0.6326025 0.644531,0.6326025 0.339844,0 0.644531,-0.2460121 0.644531,-0.6326025 z m 6.864258,4.8616667 c 0,-1.5463614 -1.207031,-2.834996 -2.671875,-2.834996 -1.511719,0 -2.683594,1.3237791 -2.683594,2.834996 0,1.5580763 1.253907,2.71784734 2.671875,2.71784734 1.464844,0 2.683594,-1.18320074 2.683594,-2.71784734 z m -2.671875,2.42497586 c -0.515625,0 -1.054687,-0.25772691 -1.382812,-0.82004016 -0.292969,-0.5271686 -0.292969,-1.2652048 -0.292969,-1.6986546 0,-0.4803092 0,-1.1246265 0.28125,-1.66351 0.328125,-0.5505984 0.902344,-0.8083253 1.382812,-0.8083253 0.527344,0 1.054688,0.2694418 1.371094,0.7848956 0.304688,0.5271686 0.304688,1.2183453 0.304688,1.6869397 0,0.4334498 0,1.0894819 -0.257813,1.6166506 -0.269531,0.55059838 -0.796875,0.90204416 -1.40625,0.90204416 z m 4.362305,-3.99476706 v 3.2333012 c 0,0.55059839 -0.140625,0.55059839 -0.949219,0.55059839 v 0.37487572047 c 0.42189,-0.0117148605 1.042984,-0.0351445805 1.371109,-0.0351445805 0.304687,0 0.9375,0.02342972 1.347656,0.0351445805 V -0.37584799 c -0.808594,0 -0.9375,0 -0.9375,-0.55059839 V -3.1522697 c 0,-1.2534899 0.855469,-1.9329518 1.628906,-1.9329518 0.761719,0 0.890625,0.6560322 0.890625,1.3472089 v 2.81156622 c 0,0.55059839 -0.128906,0.55059839 -0.9375,0.55059839 V -9.7248953e-4 C 92.289695,-0.01268735 92.910789,-0.03611707 93.238914,-0.03611707 c 0.304688,0 0.9375,0.02342972 1.347656,0.0351445805 V -0.37584799 c -0.632812,0 -0.925781,0 -0.9375,-0.36316064 V -3.0468359 c 0,-1.0426225 0,-1.417498 -0.375,-1.8509478 -0.175781,-0.2108675 -0.574218,-0.4568795 -1.277343,-0.4568795 -0.878907,0 -1.453125,0.5271686 -1.78125,1.2769196 v -1.2769196 l -1.710938,0.1405783 v 0.3748755 c 0.84375,0 0.949219,0.082004 0.949219,0.6794618 z m 12.500987,7.181209 V 2.541152 h -1.17187 V -8.5879644 h 1.17187 v -0.4920241 h -1.65234 V 3.0214612 Z m 0,0"
         style="fill:#212121;fill-opacity:1;fill-rule:nonzero;stroke:none" />
      <path
         id="path19"
         d="m 107.28384,-3.0234062 2.41406,-2.4249759 c 0.1289,-0.1288635 0.15234,-0.1522932 0.15234,-0.2577269 0,-0.1288635 -0.10547,-0.2342972 -0.23437,-0.2342972 -0.10547,0 -0.15235,0.046859 -0.25782,0.1522932 l -2.42578,2.4249759 -2.42578,-2.4249759 c -0.1289,-0.1288635 -0.15234,-0.1522932 -0.25781,-0.1522932 -0.11719,0 -0.23438,0.1054337 -0.23438,0.2342972 0,0.1054337 0.0469,0.1522932 0.15235,0.2577269 l 2.40234,2.4249759 -2.40234,2.40154616 c -0.11719,0.12886346 -0.15235,0.19915261 -0.15235,0.26944177 0,0.12886345 0.11719,0.24601205 0.23438,0.24601205 0.10547,0 0.12891,-0.0234297 0.25781,-0.16400804 l 2.41406,-2.41326104 2.42579,2.41326104 c 0.11718,0.12886346 0.1875,0.16400804 0.26953,0.16400804 0.14062,0 0.23437,-0.1171486 0.23437,-0.24601205 0,-0.0937189 -0.0234,-0.11714859 -0.15234,-0.25772691 z m 0,0"
         style="fill:#212121;fill-opacity:1;fill-rule:nonzero;stroke:none" />
      <path
         id="path20"
         d="m 115.19399,-7.7444945 c 0,-0.2928715 0,-0.3163012 -0.26953,-0.3163012 -0.75,0.7731807 -1.81641,0.7731807 -2.20312,0.7731807 v 0.3748755 c 0.23437,0 0.94921,0 1.58203,-0.3163012 v 6.26744974 c 0,0.44516466 -0.0352,0.58574297 -1.125,0.58574297 h -0.38672 v 0.37487550047 c 0.42187,-0.0351445805 1.47656,-0.0351445805 1.95703,-0.0351445805 0.49219,0 1.53516,0 1.95703,0.0351445805 V -0.37584799 h -0.38672 c -1.07812,0 -1.125,-0.12886345 -1.125,-0.58574297 z m 8.0625,3.8659036 c 0,-0.9606185 -0.0586,-1.9329518 -0.49219,-2.8232812 -0.55078,-1.159771 -1.54687,-1.3589236 -2.05078,-1.3589236 -0.72656,0 -1.60547,0.3163012 -2.10937,1.4409277 -0.38672,0.831755 -0.44531,1.7806586 -0.44531,2.7412771 0,0.913759 0.0469,2.0032409 0.55078,2.91699994 0.51562,0.98404819 1.39453,1.23006024 1.99218,1.23006024 0.65625,0 1.57032,-0.25772691 2.10938,-1.40578308 0.38672,-0.8317551 0.44531,-1.7806587 0.44531,-2.7412771 z m -2.55469,3.87761841047 c -0.46875,0 -1.18359,-0.30458634047 -1.40625,-1.46435741047 -0.1289,-0.7263213 -0.1289,-1.8392329 -0.1289,-2.5538394 0,-0.7731807 0,-1.5697911 0.0937,-2.2258232 0.23437,-1.4409277 1.13672,-1.5463615 1.4414,-1.5463615 0.39844,0 1.19532,0.2108675 1.42969,1.417498 0.11719,0.667747 0.11719,1.5932209 0.11719,2.3546867 0,0.9137591 0,1.7337992 -0.12891,2.50698 -0.1875,1.14805617 -0.8789,1.51121681047 -1.41797,1.51121681047 z m 0,0"
         style="fill:#212121;fill-opacity:1;fill-rule:nonzero;stroke:none" />
    </g>
    <path
       id="path21"
       d="m 3.8074141,-1.6982691 c 0,-1.0074779 -0.703125,-1.8626627 -1.6171875,-1.8626627 -0.3984375,0 -0.7734375,0.1405784 -1.078125,0.4334498 v -1.6517951 c 0.1757812,0.058574 0.4570312,0.1171486 0.7265625,0.1171486 1.0429687,0 1.6289062,-0.7731808 1.6289062,-0.8903293 0,-0.04686 -0.023437,-0.093719 -0.082031,-0.093719 -0.011719,0 -0.023437,0 -0.070312,0.035145 -0.1640625,0.070289 -0.5742188,0.246012 -1.1484375,0.246012 -0.3398438,0 -0.7265625,-0.058574 -1.125,-0.246012 -0.0703125,-0.02343 -0.0820313,-0.02343 -0.10546879,-0.02343 -0.0820313,0 -0.0820313,0.070289 -0.0820313,0.2108675 v 2.5069799 c 0,0.1522932 0,0.2108675 0.1171875,0.2108675 0.0585937,0 0.0820312,-0.02343 0.11718759,-0.070289 0.082031,-0.1405783 0.3984375,-0.5974578 1.0898437,-0.5974578 0.4335938,0 0.6445313,0.3983052 0.7148438,0.5505984 0.140625,0.3045863 0.1523437,0.6326024 0.1523437,1.0660522 0,0.2928715 0,0.79661043 -0.1992187,1.15977107 -0.1992188,0.32801606 -0.515625,0.55059839 -0.9023438,0.55059839 -0.6210937,0 -1.10156254,-0.45687952 -1.25390629,-0.94890361 0.0234375,0 0.0585938,0.0117149 0.15234375,0.0117149 0.26953134,0 0.42187504,-0.21086755 0.42187504,-0.41002015 0,-0.2108674 -0.1523437,-0.4217349 -0.42187504,-0.4217349 -0.12890625,0 -0.421875,0.058574 -0.421875,0.4568795 0,0.72632133 0.58593754,1.54636149 1.53515634,1.54636149 0.984375,0 1.8515625,-0.82004016 1.8515618,-1.88609269 z m 0,0"
       style="fill:#212121;fill-opacity:1;fill-rule:nonzero;stroke:none"
       aria-label="5"
       transform="matrix(1.3333333,0,0,1.3337761,339.62267,403.05417)" />
    <path
       id="path22"
       d="M 1.9225391,-9.0799885 H 0.27019531 v 0.4920241 H 1.4420703 V 2.541152 H 0.27019531 V 3.0214612 H 1.9225391 Z m 0,0"
       style="fill:#212121;fill-opacity:1;fill-rule:nonzero;stroke:none"
       aria-label="]"
       transform="matrix(1.3333333,0,0,1.3337761,346.07333,408.91145)" />
    <path
       id="path23"
       d="M 338.916,-326.415 H 3600.63"
       style="fill:none;stroke:#212121;stroke-width:4.96818;stroke-linecap:square;stroke-linejoin:round;stroke-miterlimit:10;stroke-dasharray:none;stroke-opacity:1"
       transform="matrix(0.1333112,0,0,0.133356,0,414.66667)" />
    <path
       id="path24"
       d="M 338.916,-2875.3 H 3600.63"
       style="fill:none;stroke:#212121;stroke-width:4.96818;stroke-linecap:square;stroke-linejoin:round;stroke-miterlimit:10;stroke-dasharray:none;stroke-opacity:1"
       transform="matrix(0.1333112,0,0,0.133356,0,414.66667)" />
    <path
       id="path25"
       d="m 338.916,-326.415 v -32.619"
       style="fill:none;stroke:#212121;stroke-width:4.96818;stroke-linecap:square;stroke-linejoin:round;stroke-miterlimit:10;stroke-dasharray:none;stroke-opacity:1"
       transform="matrix(0.1333112,0,0,0.133356,0,414.66667)" />
    <path
       id="path26"
       d="m 338.916,-2842.69 v -32.61"
       style="fill:none;stroke:#212121;stroke-width:4.96818;stroke-linecap:square;stroke-linejoin:round;stroke-miterlimit:10;stroke-dasharray:none;stroke-opacity:1"
       transform="matrix(0.1333112,0,0,0.133356,0,414.66667)" />
    <path
       id="path27"
       d="m 991.258,-326.415 v -32.619"
       style="fill:none;stroke:#212121;stroke-width:4.96818;stroke-linecap:square;stroke-linejoin:round;stroke-miterlimit:10;stroke-dasharray:none;stroke-opacity:1"
       transform="matrix(0.1333112,0,0,0.133356,0,414.66667)" />
    <path
       id="path28"
       d="m 991.258,-2842.69 v -32.61"
       style="fill:none;stroke:#212121;stroke-width:4.96818;stroke-linecap:square;stroke-linejoin:round;stroke-miterlimit:10;stroke-dasharray:none;stroke-opacity:1"
       transform="matrix(0.1333112,0,0,0.133356,0,414.66667)" />
    <path
       id="path29"
       d="m 1643.6,-326.415 v -32.619"
       style="fill:none;stroke:#212121;stroke-width:4.96818;stroke-linecap:square;stroke-linejoin:round;stroke-miterlimit:10;stroke-dasharray:none;stroke-opacity:1"
       transform="matrix(0.1333112,0,0,0.133356,0,414.66667)" />
    <path
       id="path30"
       d="m 1643.6,-2842.69 v -32.61"
       style="fill:none;stroke:#212121;stroke-width:4.96818;stroke-linecap:square;stroke-linejoin:round;stroke-miterlimit:10;stroke-dasharray:none;stroke-opacity:1"
       transform="matrix(0.1333112,0,0,0.133356,0,414.66667)" />
    <path
       id="path31"
       d="m 2295.94,-326.415 v -32.619"
       style="fill:none;stroke:#212121;stroke-width:4.96818;stroke-linecap:square;stroke-linejoin:round;stroke-miterlimit:10;stroke-dasharray:none;stroke-opacity:1"
       transform="matrix(0.1333112,0,0,0.133356,0,414.66667)" />
    <path
       id="path32"
       d="m 2295.94,-2842.69 v -32.61"
       style="fill:none;stroke:#212121;stroke-width:4.96818;stroke-linecap:square;stroke-linejoin:round;stroke-miterlimit:10;stroke-dasharray:none;stroke-opacity:1"
       transform="matrix(0.1333112,0,0,0.133356,0,414.66667)" />
    <path
       id="path33"
       d="m 2948.29,-326.415 v -32.619"
       style="fill:none;stroke:#212121;stroke-width:4.96818;stroke-linecap:square;stroke-linejoin:round;stroke-miterlimit:10;stroke-dasharray:none;stroke-opacity:1"
       transform="matrix(0.1333112,0,0,0.133356,0,414.66667)" />
    <path
       id="path34"
       d="m 2948.29,-2842.69 v -32.61"
       style="fill:none;stroke:#212121;stroke-width:4.96818;stroke-linecap:square;stroke-linejoin:round;stroke-miterlimit:10;stroke-dasharray:none;stroke-opacity:1"
       transform="matrix(0.1333112,0,0,0.133356,0,414.66667)" />
    <path
       id="path35"
       d="m 3600.63,-326.415 v -32.619"
       style="fill:none;stroke:#212121;stroke-width:4.96818;stroke-linecap:square;stroke-linejoin:round;stroke-miterlimit:10;stroke-dasharray:none;stroke-opacity:1"
       transform="matrix(0.1333112,0,0,0.133356,0,414.66667)" />
    <path
       id="path36"
       d="m 3600.63,-2842.69 v -32.61"
       style="fill:none;stroke:#212121;stroke-width:4.96818;stroke-linecap:square;stroke-linejoin:round;stroke-miterlimit:10;stroke-dasharray:none;stroke-opacity:1"
       transform="matrix(0.1333112,0,0,0.133356,0,414.66667)" />
    <path
       id="path37"
       d="m 5.0633188,-3.5155824 c 0,-0.8903294 -0.058594,-1.7689438 -0.4453125,-2.5772691 C 4.1141,-7.1471888 3.2117563,-7.3229117 2.754725,-7.3229117 c -0.6679687,0 -1.4648437,0.2811566 -1.921875,1.3003494 -0.3515625,0.7614658 -0.3984375,1.6166505 -0.3984375,2.5069799 0,0.8200401 0.0351563,1.8040883 0.4921875,2.64755818 0.46875,0.89032931 1.2773438,1.11291164 1.8164063,1.11291164 0.5976562,0 1.4296875,-0.23429719 1.9101562,-1.27691972 0.3515625,-0.7614658 0.4101563,-1.6166505 0.4101563,-2.4835501 z m -2.3203125,3.51445777 c -0.4335938,0 -1.078125,-0.26944176 -1.2773438,-1.33549397 -0.1171875,-0.6560321 -0.1171875,-1.66351 -0.1171875,-2.3195422 0,-0.7028915 0,-1.4292128 0.082031,-2.0266706 0.2109375,-1.3003494 1.03125,-1.4057831 1.3125,-1.4057831 0.3632812,0 1.0898437,0.1991526 1.3007812,1.2886345 0.1054688,0.6208875 0.1054688,1.4526425 0.1054688,2.1438192 0,0.8317551 0,1.5815061 -0.1171875,2.2843976 -0.1640625,1.04262251 -0.796875,1.37063857 -1.2890622,1.37063857 z M 70.169764,-1.9106467 h -0.28125 c -0.05859,0.3280161 -0.128906,0.8083253 -0.246094,0.97233332 -0.07031,0.0937189 -0.796875,0.0937189 -1.042968,0.0937189 h -1.980469 l 1.171875,-1.13634142 c 1.710937,-1.5229317 2.378906,-2.1086746 2.378906,-3.2098714 0,-1.25349 -0.996094,-2.1321044 -2.332031,-2.1321044 -1.253906,0 -2.0625,1.0074779 -2.0625,1.9915261 0,0.6091726 0.550781,0.6091726 0.585937,0.6091726 0.1875,0 0.574219,-0.1288634 0.574219,-0.5857429 0,-0.2811566 -0.199219,-0.5623133 -0.585937,-0.5623133 -0.09375,0 -0.117188,0 -0.140625,0.011715 0.246093,-0.7263213 0.84375,-1.1246265 1.476562,-1.1246265 1.007813,0 1.476563,0.8903293 1.476563,1.7923735 0,0.8786144 -0.550782,1.745514 -1.148438,2.4249759 l -2.121094,2.35468672 c -0.117187,0.12886345 -0.117187,0.14057831 -0.117187,0.41002007 h 4.078125 z m 60.580076,0.093719 h 2.92969 v 0.96061844 c 0,0.39830522 -0.0234,0.51545381 -0.83203,0.51545381 h -0.23438 v 0.33973092 c 0.44532,-0.03514457 1.01953,-0.03514457 1.48828,-0.03514457 0.45704,0 1.04297,0 1.48829,0.03514457 v -0.33973092 h -0.22266 c -0.82031,0 -0.84375,-0.11714859 -0.84375,-0.51545381 V -1.8169278 h 1.10156 v -0.339731 h -1.10156 v -5.0022449 c 0,-0.2225823 0,-0.2928715 -0.17578,-0.2928715 -0.0937,0 -0.12891,0 -0.21094,0.1405783 l -3.38672,5.1545381 z m 3,-0.339731 h -2.68359 l 2.68359,-4.1002007 z m 63.37207,-1.4526425 V -3.878743 c 0,-2.7764217 1.35938,-3.1747269 1.92188,-3.1747269 0.26953,0 0.72656,0.070289 0.97265,0.4451647 -0.16406,0 -0.60937,0 -0.60937,0.4920241 0,0.3397309 0.26953,0.5037389 0.5039,0.5037389 0.17579,0 0.51563,-0.093719 0.51563,-0.5271686 0,-0.6560322 -0.49219,-1.1832008 -1.40625,-1.1832008 -1.40625,0 -2.89453,1.4174979 -2.89453,3.8424738 0,2.94042974 1.27734,3.72532532 2.30859,3.72532532 1.21875,0 2.26172,-1.04262248 2.26172,-2.49526502 0,-1.3940683 -0.97266,-2.4484056 -2.20312,-2.4484056 -0.75,0 -1.14844,0.5623132 -1.3711,1.0894819 z m 1.3125,3.53788752 c -0.6914,0 -1.03125,-0.65603213 -1.08984,-0.82004016 -0.19922,-0.51545386 -0.19922,-1.39406826 -0.19922,-1.59322086 0,-0.8551847 0.35156,-1.9563815 1.33594,-1.9563815 0.17578,0 0.6914,0 1.03125,0.6794618 0.19922,0.4100201 0.19922,0.9606185 0.19922,1.5112169 0,0.5271686 0,1.077767 -0.1875,1.4643574 -0.33985,0.66774698 -0.84375,0.71460642 -1.08985,0.71460642 z m 64.25098,-4.95538552 c -0.50391,-0.3280161 -0.55078,-0.7028916 -0.55078,-0.8903293 0,-0.667747 0.71484,-1.1363414 1.5,-1.1363414 0.79687,0 1.5,0.5740281 1.5,1.3706386 0,0.6208875 -0.42188,1.1480562 -1.08985,1.5346466 z m 1.60547,1.0426225 c 0.79687,-0.4100201 1.33594,-0.9723333 1.33594,-1.6986546 0,-1.0191928 -0.98438,-1.6400803 -1.98047,-1.6400803 -1.10157,0 -1.99219,0.8083253 -1.99219,1.827518 0,0.1991526 0.0234,0.7028916 0.48047,1.2183454 0.11719,0.1288635 0.52734,0.3983052 0.80859,0.585743 -0.64453,0.328016 -1.59375,0.9371887 -1.59375,2.0266706 0,1.17148598 1.125,1.90952212 2.28516,1.90952212 1.24219,0 2.28515,-0.91375903 2.28515,-2.09695982 0,-0.3983052 -0.11718,-0.8903293 -0.53906,-1.3472088 -0.21094,-0.2342972 -0.38672,-0.339731 -1.08984,-0.7848956 z m -1.10156,0.4685944 1.35937,0.8551847 c 0.30469,0.2108675 0.82031,0.5388835 0.82031,1.2066305 0,0.82004017 -0.82031,1.38235342 -1.72265,1.38235342 -0.94922,0 -1.7461,-0.67946185 -1.7461,-1.59322092 0,-0.6326024 0.35157,-1.3354939 1.28907,-1.8509477 z m 63.41015,-3.5261727 c 0,-0.2577269 0,-0.2811566 -0.25781,-0.2811566 -0.67969,0.7028915 -1.64063,0.7028915 -1.99219,0.7028915 v 0.3397309 c 0.21094,0 0.86719,0 1.44141,-0.2928714 v 5.70513648 c 0,0.39830522 -0.0352,0.52716867 -1.03125,0.52716867 h -0.35156 v 0.33973092 c 0.38671,-0.03514457 1.34765,-0.03514457 1.78125,-0.03514457 0.44531,0 1.40625,0 1.78125,0.03514457 v -0.33973092 h -0.35157 c -0.98437,0 -1.01953,-0.11714859 -1.01953,-0.52716867 z m 7.33008,3.5261727 c 0,-0.8903294 -0.0586,-1.7689438 -0.44531,-2.5772691 -0.50391,-1.0543373 -1.40625,-1.2300602 -1.86328,-1.2300602 -0.66797,0 -1.46485,0.2811566 -1.92188,1.3003494 -0.35156,0.7614658 -0.39844,1.6166505 -0.39844,2.5069799 0,0.8200401 0.0352,1.8040883 0.49219,2.64755818 0.46875,0.89032931 1.27734,1.11291164 1.81641,1.11291164 0.59765,0 1.42968,-0.23429719 1.91015,-1.27691972 0.35157,-0.7614658 0.41016,-1.6166505 0.41016,-2.4835501 z m -2.32031,3.51445777 c -0.4336,0 -1.07813,-0.26944176 -1.27735,-1.33549397 -0.11718,-0.6560321 -0.11718,-1.66351 -0.11718,-2.3195422 0,-0.7028915 0,-1.4292128 0.082,-2.0266706 0.21093,-1.3003494 1.03125,-1.4057831 1.3125,-1.4057831 0.36328,0 1.08984,0.1991526 1.30078,1.2886345 0.10547,0.6208875 0.10547,1.4526425 0.10547,2.1438192 0,0.8317551 0,1.5815061 -0.11719,2.2843976 -0.16406,1.04262251 -0.79688,1.37063857 -1.28906,1.37063857 z m 0,0"
       style="fill:#212121;fill-opacity:1;fill-rule:nonzero;stroke:none"
       aria-label="0246810"
       transform="matrix(1.3333333,0,0,1.3337761,41.514533,389.064)" />
    <path
       id="path38"
       d="m 4.8150078,-8.4180077 c -0.058594,-0.1641166 -0.082031,-0.2461749 -0.28125,-0.2461749 -0.1875,0 -0.2226562,0.070336 -0.28125,0.2461749 l -2.5078125,7.2328549 c -0.2226562,0.60957605 -0.703125,0.79713792 -1.35937499,0.80886054 v 0.37512375 c 0.28125,-0.01172262 0.79687499,-0.03516785 1.23046879,-0.03516785 0.375,0 1.0078125,0.02344523 1.3945312,0.03516785 v -0.37512375 c -0.5976562,0 -0.9023437,-0.30478805 -0.9023437,-0.62129871 0,-0.0351678 0.011719,-0.15239403 0.023437,-0.17583923 l 0.5507812,-1.5825533 h 2.9882813 l 0.6445312,1.85217347 c 0.011719,0.0468905 0.035156,0.11722617 0.035156,0.16411664 0,0.36340113 -0.6796875,0.36340113 -0.9960938,0.36340113 v 0.37512375 c 0.4335938,-0.03516785 1.2773438,-0.03516785 1.734375,-0.03516785 0.5273438,0 1.078125,0.01172262 1.59375,0.03516785 V -0.37629226 H 8.4595391 c -0.7265625,0 -0.890625,-0.0820583 -1.03125,-0.48062731 z m -0.6445312,1.348101 1.3710937,3.9387994 h -2.71875 z m 9.9433594,3.0361579 c 0.105469,-0.2696202 0.316406,-0.797138 1.113281,-0.8088606 v -0.3751238 c -0.28125,0.023445 -0.632812,0.035168 -0.914062,0.035168 -0.292969,0 -0.84375,-0.023445 -1.054688,-0.035168 v 0.3751238 c 0.457031,0.011723 0.585938,0.2930654 0.585938,0.5275178 0,0.1055035 -0.02344,0.152394 -0.07031,0.2813428 l -1.242187,3.09477091 -1.347657,-3.37611371 c -0.07031,-0.1641167 -0.07031,-0.1875619 -0.07031,-0.2110071 0,-0.3165107 0.46875,-0.3165107 0.679687,-0.3165107 v -0.3751238 c -0.363281,0.011723 -1.03125,0.035168 -1.3125,0.035168 -0.328125,0 -0.8085933,-0.011723 -1.1718746,-0.035168 v 0.3751238 c 0.7617186,0 0.8085936,0.070336 0.9609376,0.4454594 l 1.746094,4.30220055 c 0.07031,0.16411664 0.09375,0.22272973 0.257812,0.22272973 0.152344,0 0.199219,-0.10550356 0.246094,-0.22272973 z m 5.730469,1.2425974 c 0.269531,0 0.304687,0 0.304687,-0.2578976 0,-1.1957069 -0.65625,-2.3679687 -2.167969,-2.3679687 -1.40625,0 -2.519531,1.2425975 -2.519531,2.7548151 0,1.6177212 1.265625,2.78998288 2.660156,2.78998288 1.476563,0 2.027344,-1.33637838 2.027344,-1.57083068 0,-0.1172262 -0.105469,-0.1406714 -0.164062,-0.1406714 -0.105469,0 -0.128907,0.070336 -0.152344,0.1641166 -0.421875,1.25432005 -1.511719,1.25432005 -1.640625,1.25432005 -0.597656,0 -1.089844,-0.36340113 -1.359375,-0.8205832 C 16.469305,-1.5602766 16.469305,-2.3574146 16.469305,-2.7911514 Z M 16.481023,-3.049049 c 0.07031,-1.805283 1.089844,-2.1100711 1.5,-2.1100711 1.242188,0 1.371094,1.6411664 1.371094,2.1100711 z m 6.108399,2.11007111 V -2.802874 c 0,-1.2074296 0.503906,-2.2741878 1.429687,-2.2741878 0.08203,0 0.105469,0 0.128907,0.011723 -0.03516,0.011723 -0.28125,0.152394 -0.28125,0.4689047 0,0.3399559 0.257812,0.5157951 0.527343,0.5157951 0.210938,0 0.515625,-0.1406714 0.515625,-0.5275178 0,-0.3868463 -0.375,-0.7385248 -0.890625,-0.7385248 -0.890625,0 -1.324218,0.8088605 -1.488281,1.3246557 v -1.3246557 l -1.6875,0.1289487 v 0.3751238 c 0.84375,0 0.9375,0.082058 0.9375,0.6799118 v 3.24716495 c 0,0.53924039 -0.128906,0.53924039 -0.9375,0.53924039 v 0.37512375 c 0.46875,-0.01172262 1.042969,-0.03516785 1.382813,-0.03516785 0.480468,0 1.054687,0 1.535156,0.03516785 v -0.37512375 h -0.257813 c -0.890625,0 -0.914062,-0.12894879 -0.914062,-0.56268593 z m 6.691406,0.0234452 c 0.04687,0.4806273 0.375,0.98469984 0.949219,0.98469984 0.246094,0 0.984375,-0.16411664 0.984375,-1.14881645 v -0.6799118 h -0.304688 v 0.6799118 c 0,0.703357 -0.292968,0.7736927 -0.433593,0.7736927 -0.398438,0 -0.445313,-0.53924039 -0.445313,-0.59785347 V -3.3303918 c 0,-0.5040725 0,-0.9729772 -0.433594,-1.4301593 -0.46875,-0.4689047 -1.078125,-0.6564666 -1.664062,-0.6564666 -0.984375,0 -1.828125,0.5626857 -1.828125,1.3598236 0,0.3634012 0.246094,0.5744083 0.5625,0.5744083 0.339844,0 0.550781,-0.246175 0.550781,-0.5626856 0,-0.1406714 -0.05859,-0.5392404 -0.609375,-0.550963 0.328125,-0.4220143 0.914063,-0.5626857 1.300781,-0.5626857 0.597657,0 1.289063,0.4806273 1.289063,1.5473855 v 0.4571821 c -0.621094,0.035168 -1.464844,0.070336 -2.226563,0.4337368 -0.914062,0.4102916 -1.21875,1.0433129 -1.21875,1.5708307 0,0.98469985 1.183594,1.27776528 1.945313,1.27776528 0.796875,0 1.347656,-0.48062731 1.582031,-1.04331297 z m -0.08203,-1.99284491 v 1.2191522 c 0,1.14881646 -0.878906,1.55910806 -1.417969,1.55910806 -0.597656,0 -1.089844,-0.42201422 -1.089844,-1.03159026 0,-0.6681892 0.503907,-1.6646117 2.507813,-1.74667 z m 4.78125,0.8205832 c -1.054688,0 -1.054688,-1.2074295 -1.054688,-1.4770497 0,-0.3282333 0.01172,-0.7150797 0.199219,-1.0198677 0.09375,-0.1523941 0.375,-0.4806273 0.855469,-0.4806273 1.054687,0 1.054687,1.2074295 1.054687,1.4887723 0,0.3165107 -0.01172,0.7033571 -0.1875,1.0081451 -0.105468,0.152394 -0.375,0.4806273 -0.867187,0.4806273 z m -1.195313,-0.093781 c 0.46875,0.3399559 0.972657,0.3751237 1.195313,0.3751237 1.125,0 1.96875,-0.8323058 1.96875,-1.7583925 0,-0.4571821 -0.199219,-0.9026416 -0.503906,-1.1839844 0.445312,-0.4102916 0.878906,-0.4689047 1.089843,-0.4689047 0.02344,0 0.09375,0 0.128907,0.011723 -0.140625,0.04689 -0.199219,0.1875618 -0.199219,0.3282332 0,0.2110071 0.164062,0.3516786 0.351562,0.3516786 0.117188,0 0.351563,-0.082058 0.351563,-0.3634012 0,-0.1992845 -0.140625,-0.5861308 -0.621094,-0.5861308 -0.234375,0 -0.773437,0.070336 -1.277344,0.5626856 -0.515625,-0.398569 -1.019531,-0.4337368 -1.289062,-0.4337368 -1.125,0 -1.957031,0.8323058 -1.957031,1.7701151 0,0.5275178 0.269531,0.9846999 0.574218,1.2425975 -0.164062,0.1758392 -0.375,0.5744082 -0.375,0.9964224 0,0.37512374 0.152344,0.84402843 0.527344,1.07848077 -0.726562,0.21100711 -1.113281,0.72680227 -1.113281,1.21915219 0,0.86747374 1.195312,1.53566294 2.671875,1.53566294 1.429687,0 2.695312,-0.6212988 2.695312,-1.57083079 0,-0.42201422 -0.175781,-1.03159032 -0.796875,-1.37154621 -0.632812,-0.3399559 -1.335937,-0.3399559 -2.074218,-0.3399559 -0.304688,0 -0.832032,0 -0.914063,-0.0117226 -0.386719,-0.0468905 -0.644531,-0.4220142 -0.644531,-0.8088606 0,-0.04689 0,-0.3282332 0.210937,-0.5744085 z m 1.535157,4.3959814 c -1.21875,0 -2.050782,-0.6212987 -2.050782,-1.25432004 0,-0.56268563 0.457032,-1.00814508 0.984375,-1.04331293 h 0.714844 c 1.042969,0 2.402344,0 2.402344,1.04331293 0,0.64474394 -0.867188,1.25432004 -2.050781,1.25432004 z m 7.749023,-5.0055575 c 0.269531,0 0.304688,0 0.304688,-0.2578976 0,-1.1957069 -0.65625,-2.3679687 -2.167969,-2.3679687 -1.40625,0 -2.519531,1.2425975 -2.519531,2.7548151 0,1.6177212 1.265625,2.78998284 2.660156,2.78998284 1.476562,0 2.027344,-1.33637834 2.027344,-1.57083064 0,-0.1172262 -0.105469,-0.1406714 -0.164063,-0.1406714 -0.105469,0 -0.128906,0.070336 -0.152344,0.1641166 -0.421875,1.25432001 -1.511718,1.25432001 -1.640625,1.25432001 -0.597656,0 -1.089843,-0.36340113 -1.359375,-0.8205832 C 38.693914,-1.5602766 38.693914,-2.3574146 38.693914,-2.7911514 Z M 38.705633,-3.049049 c 0.07031,-1.805283 1.089844,-2.1100711 1.5,-2.1100711 1.242187,0 1.371094,1.6411664 1.371094,2.1100711 z m 10.760742,-1.2191522 v -3.1416614 c 0,-0.2696202 0,-0.4220142 0.269531,-0.457182 0.117188,-0.023445 0.46875,-0.023445 0.714844,-0.023445 1.089844,0 2.449219,0.04689 2.449219,1.8052831 0,0.8323058 -0.292969,1.8170056 -2.085938,1.8170056 z m 2.554687,0.1523941 c 1.183594,-0.2930655 2.121094,-1.0315904 2.121094,-1.9693997 0,-1.1605391 -1.382812,-2.1804068 -3.152344,-2.1804068 h -3.808593 v 0.3751237 h 0.292968 c 0.925782,0 0.960938,0.1289488 0.960938,0.5744083 v 6.37710371 c 0,0.43373684 -0.03516,0.56268563 -0.960938,0.56268563 h -0.292968 v 0.37512375 c 0.433593,-0.03516785 1.300781,-0.03516785 1.769531,-0.03516785 0.46875,0 1.335937,0 1.769531,0.03516785 v -0.37512375 h -0.292969 c -0.9375,0 -0.960937,-0.12894879 -0.960937,-0.56268563 V -4.0103036 h 1.394531 c 0.199219,0 0.703125,0 1.125,0.4102916 0.46875,0.4454595 0.46875,0.8205832 0.46875,1.6294438 0,0.7854154 0,1.26604266 0.492188,1.72322473 0.492187,0.44545945 1.160156,0.51579515 1.523437,0.51579515 0.949219,0 1.148438,-0.99642246 1.148438,-1.33637838 0,-0.070336 0,-0.1992845 -0.152344,-0.1992845 -0.140625,0 -0.140625,0.1055036 -0.152344,0.1875619 -0.07031,0.85575106 -0.492187,1.07848079 -0.796875,1.07848079 -0.585937,0 -0.691406,-0.62129871 -0.855469,-1.74666999 l -0.164062,-0.9612546 c -0.210938,-0.7736927 -0.808594,-1.1722617 -1.476563,-1.406714 z m 8.370118,1.3246557 c 0.269531,0 0.304687,0 0.304687,-0.2578976 0,-1.1957069 -0.65625,-2.3679687 -2.167969,-2.3679687 -1.40625,0 -2.519531,1.2425975 -2.519531,2.7548151 0,1.6177212 1.265625,2.78998288 2.660156,2.78998288 1.476563,0 2.027344,-1.33637838 2.027344,-1.57083068 0,-0.1172262 -0.105469,-0.1406714 -0.164062,-0.1406714 -0.105469,0 -0.128907,0.070336 -0.152344,0.1641166 -0.421875,1.25432005 -1.511719,1.25432005 -1.640625,1.25432005 -0.597656,0 -1.089844,-0.36340113 -1.359375,-0.8205832 C 57.01618,-1.5602766 57.01618,-2.3574146 57.01618,-2.7911514 Z M 57.027898,-3.049049 c 0.07031,-1.805283 1.089844,-2.1100711 1.5,-2.1100711 1.242188,0 1.371094,1.6411664 1.371094,2.1100711 z m 6.117188,-1.7935604 h 1.722656 v -0.3751238 h -1.722656 v -2.2272972 h -0.304688 c -0.01172,0.9964224 -0.375,2.2859103 -1.558593,2.3328008 v 0.2696202 h 1.019531 v 3.3409459 c 0,1.48877237 1.136719,1.62944378 1.570312,1.62944378 0.855469,0 1.195313,-0.85575106 1.195313,-1.62944378 v -0.6916344 h -0.304688 v 0.6681892 c 0,0.89091886 -0.363281,1.35982355 -0.808593,1.35982355 -0.808594,0 -0.808594,-1.10192605 -0.808594,-1.31293315 z m 7.344726,3.88018628 v 1.0902034 l 1.746094,-0.12894879 v -0.37512375 c -0.855469,0 -0.949219,-0.0820583 -0.949219,-0.67991184 v -4.2904778 l -1.78125,0.1289487 v 0.3751238 c 0.855469,0 0.949219,0.082058 0.949219,0.6799118 v 2.1569616 c 0,1.04331288 -0.585937,1.8756187 -1.464844,1.8756187 -1.019531,0 -1.066406,-0.57440824 -1.066406,-1.2074296 v -4.009135 l -1.78125,0.1289487 v 0.3751238 c 0.949219,0 0.949219,0.035168 0.949219,1.1136486 v 1.8170057 c 0,0.93780936 0,2.03973538 1.839844,2.03973538 0.667968,0 1.207031,-0.3399559 1.558593,-1.0902034 z m 4.072266,0.0234452 V -2.802874 c 0,-1.2074296 0.503906,-2.2741878 1.429688,-2.2741878 0.08203,0 0.105468,0 0.128906,0.011723 -0.03516,0.011723 -0.28125,0.152394 -0.28125,0.4689047 0,0.3399559 0.257812,0.5157951 0.527344,0.5157951 0.210937,0 0.515625,-0.1406714 0.515625,-0.5275178 0,-0.3868463 -0.375,-0.7385248 -0.890625,-0.7385248 -0.890625,0 -1.324219,0.8088605 -1.488282,1.3246557 v -1.3246557 l -1.6875,0.1289487 v 0.3751238 c 0.84375,0 0.9375,0.082058 0.9375,0.6799118 v 3.24716495 c 0,0.53924039 -0.128906,0.53924039 -0.9375,0.53924039 v 0.37512375 c 0.46875,-0.01172262 1.042969,-0.03516785 1.382813,-0.03516785 0.480469,0 1.054687,0 1.535156,0.03516785 v -0.37512375 h -0.257812 c -0.890625,0 -0.914063,-0.12894879 -0.914063,-0.56268596 z m 3.996094,-3.22371968 v 3.24716492 c 0,0.53924039 -0.140625,0.53924039 -0.949219,0.53924039 v 0.37512375 c 0.421875,-0.01172262 1.042969,-0.03516785 1.371094,-0.03516785 0.316406,0 0.9375,0.02344523 1.347656,0.03516785 v -0.37512375 c -0.808594,0 -0.9375,0 -0.9375,-0.53924039 V -3.1428299 c 0,-1.2660427 0.855469,-1.9342319 1.628906,-1.9342319 0.761719,0 0.902344,0.644744 0.902344,1.3363784 v 2.82515075 c 0,0.53924039 -0.140625,0.53924039 -0.949219,0.53924039 v 0.37512375 c 0.421875,-0.01172262 1.042969,-0.03516785 1.371094,-0.03516785 0.316406,0 0.949219,0.02344523 1.359375,0.03516785 v -0.37512375 c -0.632812,0 -0.9375,0 -0.949219,-0.36340113 V -3.049049 c 0,-1.0433129 0,-1.4184367 -0.375,-1.8521735 -0.164062,-0.2110071 -0.5625,-0.4454594 -1.265625,-0.4454594 -0.890625,0 -1.453125,0.5157951 -1.792968,1.2660426 v -1.2660426 l -1.710938,0.1289487 v 0.3751238 c 0.84375,0 0.949219,0.082058 0.949219,0.6799118 z m 0,0"
       style="fill:#212121;fill-opacity:1;fill-rule:nonzero;stroke:none"
       aria-label="A&#10;v&#10;e&#10;r&#10;a&#10;g&#10;e&#10;R&#10;e&#10;t&#10;u&#10;r&#10;n"
       transform="matrix(0,-1.3333333,1.3328935,0,12.47812,257.14267)" />
    <path
       id="path39"
       d="M 338.916,-326.415 V -2875.3"
       style="fill:none;stroke:#212121;stroke-width:4.96818;stroke-linecap:square;stroke-linejoin:round;stroke-miterlimit:10;stroke-dasharray:none;stroke-opacity:1"
       transform="matrix(0.1333112,0,0,0.133356,0,414.66667)" />
    <path
       id="path40"
       d="M 3600.63,-326.415 V -2875.3"
       style="fill:none;stroke:#212121;stroke-width:4.96818;stroke-linecap:square;stroke-linejoin:round;stroke-miterlimit:10;stroke-dasharray:none;stroke-opacity:1"
       transform="matrix(0.1333112,0,0,0.133356,0,414.66667)" />
    <path
       id="path41"
       d="m 338.916,-326.415 h 32.618"
       style="fill:none;stroke:#212121;stroke-width:4.96818;stroke-linecap:square;stroke-linejoin:round;stroke-miterlimit:10;stroke-dasharray:none;stroke-opacity:1"
       transform="matrix(0.1333112,0,0,0.133356,0,414.66667)" />
    <path
       id="path42"
       d="m 3568.01,-326.415 h 32.62"
       style="fill:none;stroke:#212121;stroke-width:4.96818;stroke-linecap:square;stroke-linejoin:round;stroke-miterlimit:10;stroke-dasharray:none;stroke-opacity:1"
       transform="matrix(0.1333112,0,0,0.133356,0,414.66667)" />
    <path
       id="path43"
       d="m 338.916,-645.026 h 32.618"
       style="fill:none;stroke:#212121;stroke-width:4.96818;stroke-linecap:square;stroke-linejoin:round;stroke-miterlimit:10;stroke-dasharray:none;stroke-opacity:1"
       transform="matrix(0.1333112,0,0,0.133356,0,414.66667)" />
    <path
       id="path44"
       d="m 3568.01,-645.026 h 32.62"
       style="fill:none;stroke:#212121;stroke-width:4.96818;stroke-linecap:square;stroke-linejoin:round;stroke-miterlimit:10;stroke-dasharray:none;stroke-opacity:1"
       transform="matrix(0.1333112,0,0,0.133356,0,414.66667)" />
    <path
       id="path45"
       d="m 338.916,-963.637 h 32.618"
       style="fill:none;stroke:#212121;stroke-width:4.96818;stroke-linecap:square;stroke-linejoin:round;stroke-miterlimit:10;stroke-dasharray:none;stroke-opacity:1"
       transform="matrix(0.1333112,0,0,0.133356,0,414.66667)" />
    <path
       id="path46"
       d="m 3568.01,-963.637 h 32.62"
       style="fill:none;stroke:#212121;stroke-width:4.96818;stroke-linecap:square;stroke-linejoin:round;stroke-miterlimit:10;stroke-dasharray:none;stroke-opacity:1"
       transform="matrix(0.1333112,0,0,0.133356,0,414.66667)" />
    <path
       id="path47"
       d="m 338.916,-1282.25 h 32.618"
       style="fill:none;stroke:#212121;stroke-width:4.96818;stroke-linecap:square;stroke-linejoin:round;stroke-miterlimit:10;stroke-dasharray:none;stroke-opacity:1"
       transform="matrix(0.1333112,0,0,0.133356,0,414.66667)" />
    <path
       id="path48"
       d="m 3568.01,-1282.25 h 32.62"
       style="fill:none;stroke:#212121;stroke-width:4.96818;stroke-linecap:square;stroke-linejoin:round;stroke-miterlimit:10;stroke-dasharray:none;stroke-opacity:1"
       transform="matrix(0.1333112,0,0,0.133356,0,414.66667)" />
    <path
       id="path49"
       d="m 338.916,-1600.86 h 32.618"
       style="fill:none;stroke:#212121;stroke-width:4.96818;stroke-linecap:square;stroke-linejoin:round;stroke-miterlimit:10;stroke-dasharray:none;stroke-opacity:1"
       transform="matrix(0.1333112,0,0,0.133356,0,414.66667)" />
    <path
       id="path50"
       d="m 3568.01,-1600.86 h 32.62"
       style="fill:none;stroke:#212121;stroke-width:4.96818;stroke-linecap:square;stroke-linejoin:round;stroke-miterlimit:10;stroke-dasharray:none;stroke-opacity:1"
       transform="matrix(0.1333112,0,0,0.133356,0,414.66667)" />
    <path
       id="path51"
       d="m 338.916,-1919.47 h 32.618"
       style="fill:none;stroke:#212121;stroke-width:4.96818;stroke-linecap:square;stroke-linejoin:round;stroke-miterlimit:10;stroke-dasharray:none;stroke-opacity:1"
       transform="matrix(0.1333112,0,0,0.133356,0,414.66667)" />
    <path
       id="path52"
       d="m 3568.01,-1919.47 h 32.62"
       style="fill:none;stroke:#212121;stroke-width:4.96818;stroke-linecap:square;stroke-linejoin:round;stroke-miterlimit:10;stroke-dasharray:none;stroke-opacity:1"
       transform="matrix(0.1333112,0,0,0.133356,0,414.66667)" />
    <path
       id="path53"
       d="m 338.916,-2238.08 h 32.618"
       style="fill:none;stroke:#212121;stroke-width:4.96818;stroke-linecap:square;stroke-linejoin:round;stroke-miterlimit:10;stroke-dasharray:none;stroke-opacity:1"
       transform="matrix(0.1333112,0,0,0.133356,0,414.66667)" />
    <path
       id="path54"
       d="m 3568.01,-2238.08 h 32.62"
       style="fill:none;stroke:#212121;stroke-width:4.96818;stroke-linecap:square;stroke-linejoin:round;stroke-miterlimit:10;stroke-dasharray:none;stroke-opacity:1"
       transform="matrix(0.1333112,0,0,0.133356,0,414.66667)" />
    <path
       id="path55"
       d="m 338.916,-2556.69 h 32.618"
       style="fill:none;stroke:#212121;stroke-width:4.96818;stroke-linecap:square;stroke-linejoin:round;stroke-miterlimit:10;stroke-dasharray:none;stroke-opacity:1"
       transform="matrix(0.1333112,0,0,0.133356,0,414.66667)" />
    <path
       id="path56"
       d="m 3568.01,-2556.69 h 32.62"
       style="fill:none;stroke:#212121;stroke-width:4.96818;stroke-linecap:square;stroke-linejoin:round;stroke-miterlimit:10;stroke-dasharray:none;stroke-opacity:1"
       transform="matrix(0.1333112,0,0,0.133356,0,414.66667)" />
    <path
       id="path57"
       d="m 338.916,-2875.3 h 32.618"
       style="fill:none;stroke:#212121;stroke-width:4.96818;stroke-linecap:square;stroke-linejoin:round;stroke-miterlimit:10;stroke-dasharray:none;stroke-opacity:1"
       transform="matrix(0.1333112,0,0,0.133356,0,414.66667)" />
    <path
       id="path58"
       d="m 3568.01,-2875.3 h 32.62"
       style="fill:none;stroke:#212121;stroke-width:4.96818;stroke-linecap:square;stroke-linejoin:round;stroke-miterlimit:10;stroke-dasharray:none;stroke-opacity:1"
       transform="matrix(0.1333112,0,0,0.133356,0,414.66667)" />
    <path
       id="path59"
       d="m 3.2341516,-7.041613 c 0,-0.2577269 0,-0.2811566 -0.2578125,-0.2811566 -0.6796875,0.7028916 -1.640625,0.7028916 -1.99218754,0.7028916 v 0.3397309 c 0.21093754,0 0.86718754,0 1.44140624,-0.2928715 v 5.70513652 c 0,0.39830522 -0.035156,0.52716867 -1.03125,0.52716867 H 1.0427453 V -9.8248621e-4 C 1.4294641,-0.03612706 2.3904016,-0.03612706 2.8239953,-0.03612706 c 0.4453125,0 1.40625,0 1.78125,0.0351445738 V -0.34071341 H 4.2536828 c -0.984375,0 -1.0195312,-0.11714859 -1.0195312,-0.52716867 z M 10.5613,-3.5154403 c 0,-0.8903293 -0.05859,-1.7689438 -0.445312,-2.5772691 -0.5039067,-1.0543373 -1.4062505,-1.2300602 -1.8632817,-1.2300602 -0.6679688,0 -1.4648438,0.2811566 -1.921875,1.3003494 -0.3515625,0.7614659 -0.3984375,1.6166506 -0.3984375,2.5069799 0,0.8200402 0.035156,1.8040883 0.4921875,2.64755822 0.46875,0.89032931 1.2773437,1.11291164 1.8164062,1.11291164 0.5976563,0 1.4296875,-0.23429719 1.9101565,-1.27691966 C 10.502706,-1.793356 10.5613,-2.6485407 10.5613,-3.5154403 Z M 8.2409875,-9.8248621e-4 c -0.4335937,0 -1.078125,-0.26944176379 -1.2773437,-1.33549401379 -0.1171875,-0.6560321 -0.1171875,-1.66351 -0.1171875,-2.3195421 0,-0.7028916 0,-1.4292129 0.082031,-2.0266707 0.2109375,-1.3003494 1.03125,-1.4057831 1.3125,-1.4057831 0.3632813,0 1.0898438,0.1991526 1.3007813,1.2886345 0.1054687,0.6208876 0.1054687,1.4526426 0.1054687,2.1438193 0,0.831755 0,1.581506 -0.1171875,2.2843976 C 9.3659875,-0.32899855 8.733175,-9.8248621e-4 8.2409875,-9.8248621e-4 Z M 4.9450891,-33.766136 h -0.28125 c -0.058594,0.328016 -0.1289063,0.808325 -0.2460938,0.972333 -0.070312,0.09372 -0.796875,0.09372 -1.0429687,0.09372 H 1.3943078 l 1.171875,-1.136341 c 1.7109375,-1.522932 2.3789063,-2.108675 2.3789063,-3.209872 0,-1.253489 -0.9960938,-2.132104 -2.3320313,-2.132104 -1.2539062,0 -2.06249999,1.007478 -2.06249999,1.991526 0,0.609173 0.55078129,0.609173 0.58593749,0.609173 0.1875,0 0.5742188,-0.128864 0.5742188,-0.585743 0,-0.281157 -0.1992188,-0.562313 -0.5859375,-0.562313 -0.09375,0 -0.1171875,0 -0.14062504,0.01171 0.24609374,-0.726321 0.84375004,-1.124626 1.47656254,-1.124626 1.0078125,0 1.4765625,0.890329 1.4765625,1.792373 0,0.878615 -0.5507813,1.745515 -1.1484375,2.424976 l -2.12109379,2.354687 c -0.1171875,0.128864 -0.1171875,0.140578 -0.1171875,0.41002 H 4.6286828 Z M 10.5613,-35.371072 c 0,-0.890329 -0.05859,-1.768943 -0.445312,-2.577269 -0.5039067,-1.054337 -1.4062505,-1.23006 -1.8632817,-1.23006 -0.6679688,0 -1.4648438,0.281157 -1.921875,1.300349 -0.3515625,0.761466 -0.3984375,1.616651 -0.3984375,2.50698 0,0.820041 0.035156,1.804089 0.4921875,2.647559 0.46875,0.890329 1.2773437,1.112911 1.8164062,1.112911 0.5976563,0 1.4296875,-0.234297 1.9101565,-1.276919 0.351562,-0.761466 0.410156,-1.616651 0.410156,-2.483551 z m -2.3203125,3.514458 c -0.4335937,0 -1.078125,-0.269442 -1.2773437,-1.335494 -0.1171875,-0.656032 -0.1171875,-1.66351 -0.1171875,-2.319542 0,-0.702892 0,-1.429213 0.082031,-2.026671 0.2109375,-1.300349 1.03125,-1.405783 1.3125,-1.405783 0.3632813,0 1.0898438,0.199153 1.3007813,1.288635 0.1054687,0.620887 0.1054687,1.452642 0.1054687,2.143819 0,0.831755 0,1.581506 -0.1171875,2.284398 -0.1640625,1.042622 -0.796875,1.370638 -1.2890623,1.370638 z m -5.0537109,-35.73325 c 0.9023437,-0.292871 1.546875,-1.066052 1.546875,-1.932951 0,-0.902045 -0.9726563,-1.511217 -2.0273438,-1.511217 -1.1132812,0 -1.94531249,0.656032 -1.94531249,1.487787 0,0.36316 0.234375,0.574028 0.56249999,0.574028 0.3398438,0 0.5625,-0.234297 0.5625,-0.562313 0,-0.550599 -0.5273437,-0.550599 -0.6914062,-0.550599 0.3398437,-0.538883 1.0664062,-0.679462 1.4648437,-0.679462 0.4570313,0 1.0546875,0.246013 1.0546875,1.230061 0,0.140578 -0.011719,0.77318 -0.3046875,1.25349 -0.328125,0.527168 -0.703125,0.562313 -0.9726562,0.574028 -0.09375,0.01172 -0.3632813,0.03514 -0.4335938,0.03514 -0.09375,0.01172 -0.1640625,0.02343 -0.1640625,0.128864 0,0.128863 0.070312,0.128863 0.2578125,0.128863 h 0.4921875 c 0.9023438,0 1.3007813,0.738036 1.3007813,1.815803 0,1.499502 -0.75,1.815804 -1.2421875,1.815804 -0.46875,0 -1.3007813,-0.187438 -1.67578129,-0.831755 0.37499999,0.05857 0.72656249,-0.187438 0.72656249,-0.609173 0,-0.38659 -0.3046875,-0.609173 -0.6210937,-0.609173 -0.26953129,0 -0.62109379,0.152293 -0.62109379,0.632603 0,1.007478 1.03124999,1.733799 2.22656249,1.733799 1.3476563,0 2.34375,-1.007478 2.34375,-2.132105 0,-0.902044 -0.6914062,-1.757228 -1.8398437,-1.991526 z m 7.3740234,0.363161 c 0,-0.890329 -0.05859,-1.768944 -0.445312,-2.577269 -0.5039067,-1.054337 -1.4062505,-1.23006 -1.8632817,-1.23006 -0.6679688,0 -1.4648438,0.281156 -1.921875,1.300349 -0.3515625,0.761466 -0.3984375,1.616651 -0.3984375,2.50698 0,0.82004 0.035156,1.804088 0.4921875,2.647558 0.46875,0.89033 1.2773437,1.112912 1.8164062,1.112912 0.5976563,0 1.4296875,-0.234297 1.9101565,-1.27692 0.351562,-0.761466 0.410156,-1.61665 0.410156,-2.48355 z m -2.3203125,3.514458 c -0.4335937,0 -1.078125,-0.269442 -1.2773437,-1.335494 -0.1171875,-0.656032 -0.1171875,-1.66351 -0.1171875,-2.319542 0,-0.702892 0,-1.429213 0.082031,-2.026671 0.2109375,-1.300349 1.03125,-1.405783 1.3125,-1.405783 0.3632813,0 1.0898438,0.199152 1.3007813,1.288634 0.1054687,0.620888 0.1054687,1.452643 0.1054687,2.14382 0,0.831755 0,1.581506 -0.1171875,2.284397 -0.1640625,1.042623 -0.796875,1.370639 -1.2890623,1.370639 z M 0.30446406,-97.38368 H 3.2341516 v 0.960619 c 0,0.398305 -0.023437,0.515454 -0.8320313,0.515454 h -0.234375 v 0.33973 c 0.4453125,-0.03514 1.0195313,-0.03514 1.4882813,-0.03514 0.4570312,0 1.0429687,0 1.4882812,0.03514 v -0.33973 H 4.9216516 c -0.8203125,0 -0.84375,-0.117149 -0.84375,-0.515454 v -0.960619 h 1.1015625 v -0.339731 H 4.0779016 v -5.002249 c 0,-0.22258 0,-0.29287 -0.1757813,-0.29287 -0.09375,0 -0.1289062,0 -0.2109375,0.14058 l -3.38671874,5.154539 z M 3.3044641,-97.723411 H 0.62087031 L 3.3044641,-101.82361 Z M 10.5613,-99.082334 c 0,-0.89033 -0.05859,-1.768946 -0.445312,-2.577266 -0.5039067,-1.05434 -1.4062505,-1.23006 -1.8632817,-1.23006 -0.6679688,0 -1.4648438,0.28115 -1.921875,1.30035 -0.3515625,0.76146 -0.3984375,1.616646 -0.3984375,2.506976 0,0.82004 0.035156,1.804088 0.4921875,2.647558 0.46875,0.890329 1.2773437,1.112911 1.8164062,1.112911 0.5976563,0 1.4296875,-0.234297 1.9101565,-1.276919 0.351562,-0.761466 0.410156,-1.616651 0.410156,-2.48355 z m -2.3203125,3.514457 c -0.4335937,0 -1.078125,-0.269441 -1.2773437,-1.335494 -0.1171875,-0.656032 -0.1171875,-1.66351 -0.1171875,-2.319542 0,-0.702891 0,-1.429217 0.082031,-2.026667 0.2109375,-1.30035 1.03125,-1.40579 1.3125,-1.40579 0.3632813,0 1.0898438,0.19916 1.3007813,1.28864 0.1054687,0.62089 0.1054687,1.452641 0.1054687,2.143817 0,0.831755 0,1.581506 -0.1171875,2.284398 -0.1640625,1.042622 -0.796875,1.370638 -1.2890623,1.370638 z M 4.9450891,-129.63762 c 0,-1.30035 -0.9023438,-2.40154 -2.0976563,-2.40154 -0.5273437,0 -0.9960937,0.17572 -1.3945312,0.56231 v -2.15553 c 0.2226562,0.0703 0.5859375,0.15229 0.9375,0.15229 1.3476562,0 2.1210937,-1.00748 2.1210937,-1.14806 0,-0.0703 -0.035156,-0.11715 -0.1054687,-0.11715 -0.011719,0 -0.035156,0 -0.09375,0.0234 -0.2226563,0.10544 -0.7617188,0.32802 -1.5,0.32802 -0.4335938,0 -0.9375,-0.082 -1.4648438,-0.3163 -0.082031,-0.0234 -0.1054687,-0.0234 -0.1289062,-0.0234 -0.1054688,0 -0.1054688,0.082 -0.1054688,0.25773 v 3.25673 c 0,0.19915 0,0.28115 0.1523438,0.28115 0.082031,0 0.09375,-0.0234 0.140625,-0.0937 0.1289062,-0.17573 0.5273437,-0.77319 1.4179687,-0.77319 0.5742188,0 0.8554688,0.50374 0.9375,0.7029 0.1757813,0.41002 0.1992188,0.84347 0.1992188,1.39406 0,0.38659 0,1.04263 -0.2578125,1.49951 -0.2695313,0.43345 -0.6796875,0.7146 -1.1835938,0.7146 -0.8085937,0 -1.4296875,-0.57403 -1.61718749,-1.23006 0.0351563,0.0117 0.0703125,0.0234 0.18749999,0.0234 0.3632813,0 0.5507813,-0.26944 0.5507813,-0.53888 0,-0.25773 -0.1875,-0.53888 -0.5507813,-0.53888 -0.15234374,0 -0.53906249,0.082 -0.53906249,0.58574 0,0.9489 0.76171879,2.01495 1.99218749,2.01495 1.2773438,0 2.4023438,-1.05433 2.4023438,-2.46012 z m 5.6162109,-1.30035 c 0,-0.89033 -0.05859,-1.76894 -0.445312,-2.57726 -0.5039067,-1.05434 -1.4062505,-1.23007 -1.8632817,-1.23007 -0.6679688,0 -1.4648438,0.28116 -1.921875,1.30035 -0.3515625,0.76147 -0.3984375,1.61665 -0.3984375,2.50698 0,0.82004 0.035156,1.80409 0.4921875,2.64756 0.46875,0.89033 1.2773437,1.11291 1.8164062,1.11291 0.5976563,0 1.4296875,-0.23429 1.9101565,-1.27692 0.351562,-0.76146 0.410156,-1.61665 0.410156,-2.48355 z m -2.3203125,3.51446 c -0.4335937,0 -1.078125,-0.26944 -1.2773437,-1.33549 -0.1171875,-0.65603 -0.1171875,-1.66351 -0.1171875,-2.31954 0,-0.7029 0,-1.42922 0.082031,-2.02667 0.2109375,-1.30035 1.03125,-1.40579 1.3125,-1.40579 0.3632813,0 1.0898438,0.19915 1.3007813,1.28864 0.1054687,0.62088 0.1054687,1.45264 0.1054687,2.14382 0,0.83175 0,1.5815 -0.1171875,2.28439 -0.1640625,1.04263 -0.796875,1.37064 -1.2890623,1.37064 z m -6.7880859,-35.46381 v -0.26944 c 0,-2.77642 1.359375,-3.17472 1.921875,-3.17472 0.2695312,0 0.7265625,0.0703 0.9726562,0.44516 -0.1640625,0 -0.609375,0 -0.609375,0.49202 0,0.33974 0.2695313,0.50374 0.5039063,0.50374 0.1757812,0 0.515625,-0.0937 0.515625,-0.52717 0,-0.65603 -0.4921875,-1.1832 -1.40625,-1.1832 -1.40625,0 -2.89453129,1.4175 -2.89453129,3.84248 0,2.94043 1.27734379,3.72532 2.30859379,3.72532 1.21875,0 2.2617187,-1.04262 2.2617187,-2.49526 0,-1.39407 -0.9726562,-2.44841 -2.203125,-2.44841 -0.75,0 -1.1484375,0.56232 -1.3710937,1.08948 z m 1.3125,3.53789 c -0.6914063,0 -1.03125,-0.65603 -1.0898438,-0.82004 -0.1992187,-0.51545 -0.1992187,-1.39407 -0.1992187,-1.59322 0,-0.85518 0.3515625,-1.95638 1.3359375,-1.95638 0.1757812,0 0.6914062,0 1.03125,0.67946 0.1992187,0.41002 0.1992187,0.96062 0.1992187,1.51122 0,0.52717 0,1.07776 -0.1875,1.46436 -0.3398437,0.66774 -0.84375,0.7146 -1.0898437,0.7146 z M 10.5613,-162.7936 c 0,-0.89033 -0.05859,-1.76894 -0.445312,-2.57727 -0.5039067,-1.05433 -1.4062505,-1.23006 -1.8632817,-1.23006 -0.6679688,0 -1.4648438,0.28116 -1.921875,1.30035 -0.3515625,0.76147 -0.3984375,1.61665 -0.3984375,2.50698 0,0.82004 0.035156,1.80409 0.4921875,2.64756 0.46875,0.89033 1.2773437,1.11291 1.8164062,1.11291 0.5976563,0 1.4296875,-0.23429 1.9101565,-1.27692 0.351562,-0.76146 0.410156,-1.61665 0.410156,-2.48355 z m -2.3203125,3.51446 c -0.4335937,0 -1.078125,-0.26944 -1.2773437,-1.33549 -0.1171875,-0.65604 -0.1171875,-1.66351 -0.1171875,-2.31955 0,-0.70289 0,-1.42921 0.082031,-2.02667 0.2109375,-1.30035 1.03125,-1.40578 1.3125,-1.40578 0.3632813,0 1.0898438,0.19915 1.3007813,1.28864 0.1054687,0.62088 0.1054687,1.45264 0.1054687,2.14381 0,0.83176 0,1.58151 -0.1171875,2.2844 -0.1640625,1.04262 -0.796875,1.37064 -1.2890623,1.37064 z m -3.0029297,-38.55653 c 0.09375,-0.12886 0.09375,-0.15229 0.09375,-0.38659 h -2.671875 c -1.3359375,0 -1.359375,-0.14058 -1.40625,-0.35145 H 0.98415156 l -0.36328125,2.27269 h 0.26953125 c 0.0351563,-0.17573 0.12890624,-0.87862 0.28125004,-1.00748 0.070312,-0.0586 0.9257812,-0.0586 1.078125,-0.0586 h 2.2734375 c -0.1171875,0.17573 -0.9960938,1.37064 -1.2304688,1.7338 -0.9960937,1.48779 -1.359375,3.01072 -1.359375,4.13535 0,0.10543 0,0.60917 0.5039063,0.60917 0.515625,0 0.515625,-0.50374 0.515625,-0.60917 v -0.56231 c 0,-0.60918 0.023437,-1.20664 0.1171875,-1.80409 0.046875,-0.24601 0.1992187,-1.19492 0.6796875,-1.87438 z m 5.3232422,3.18644 c 0,-0.89033 -0.05859,-1.76894 -0.445312,-2.57727 -0.5039067,-1.05433 -1.4062505,-1.23006 -1.8632817,-1.23006 -0.6679688,0 -1.4648438,0.28116 -1.921875,1.30035 -0.3515625,0.76147 -0.3984375,1.61665 -0.3984375,2.50698 0,0.82004 0.035156,1.80409 0.4921875,2.64756 0.46875,0.89033 1.2773437,1.11291 1.8164062,1.11291 0.5976563,0 1.4296875,-0.2343 1.9101565,-1.27692 0.351562,-0.76146 0.410156,-1.61665 0.410156,-2.48355 z m -2.3203125,3.51446 c -0.4335937,0 -1.078125,-0.26944 -1.2773437,-1.33549 -0.1171875,-0.65604 -0.1171875,-1.66351 -0.1171875,-2.31955 0,-0.70289 0,-1.42921 0.082031,-2.02667 0.2109375,-1.30035 1.03125,-1.40578 1.3125,-1.40578 0.3632813,0 1.0898438,0.19915 1.3007813,1.28863 0.1054687,0.62089 0.1054687,1.45265 0.1054687,2.14382 0,0.83176 0,1.58151 -0.1171875,2.2844 -0.1640625,1.04262 -0.796875,1.37064 -1.2890623,1.37064 z m -6.4482422,-36.88131 c -0.5039062,-0.32801 -0.5507812,-0.70289 -0.5507812,-0.89033 0,-0.66774 0.7148437,-1.13634 1.5,-1.13634 0.796875,0 1.5,0.57403 1.5,1.37064 0,0.62089 -0.421875,1.14806 -1.0898438,1.53465 z m 1.6054688,1.04263 c 0.796875,-0.41002 1.3359375,-0.97234 1.3359375,-1.69866 0,-1.01919 -0.984375,-1.64008 -1.9804688,-1.64008 -1.1015625,0 -1.99218749,0.80833 -1.99218749,1.82752 0,0.19915 0.0234375,0.70289 0.48046879,1.21834 0.1171875,0.12887 0.5273437,0.39831 0.8085937,0.58575 -0.6445312,0.32801 -1.59374999,0.93719 -1.59374999,2.02667 0,1.17148 1.12499999,1.90952 2.28515629,1.90952 1.2421875,0 2.2851562,-0.91376 2.2851562,-2.09696 0,-0.3983 -0.1171875,-0.89033 -0.5390625,-1.34721 -0.2109375,-0.2343 -0.3867187,-0.33973 -1.0898437,-0.78489 z m -1.1015625,0.46859 1.359375,0.85518 c 0.3046875,0.21087 0.8203125,0.53889 0.8203125,1.20664 0,0.82004 -0.8203125,1.38235 -1.7226563,1.38235 -0.9492187,0 -1.7460937,-0.67946 -1.7460937,-1.59322 0,-0.6326 0.3515625,-1.3355 1.2890625,-1.85095 z m 8.2646484,0 c 0,-0.89033 -0.05859,-1.76894 -0.445312,-2.57727 -0.5039067,-1.05434 -1.4062505,-1.23006 -1.8632817,-1.23006 -0.6679688,0 -1.4648438,0.28116 -1.921875,1.30035 -0.3515625,0.76147 -0.3984375,1.61665 -0.3984375,2.50698 0,0.82004 0.035156,1.80409 0.4921875,2.64756 0.46875,0.89033 1.2773437,1.11291 1.8164062,1.11291 0.5976563,0 1.4296875,-0.2343 1.9101565,-1.27692 0.351562,-0.76147 0.410156,-1.61665 0.410156,-2.48355 z m -2.3203125,3.51446 c -0.4335937,0 -1.078125,-0.26944 -1.2773437,-1.3355 -0.1171875,-0.65603 -0.1171875,-1.66351 -0.1171875,-2.31954 0,-0.70289 0,-1.42921 0.082031,-2.02667 0.2109375,-1.30035 1.03125,-1.40578 1.3125,-1.40578 0.3632813,0 1.0898438,0.19915 1.3007813,1.28863 0.1054687,0.62089 0.1054687,1.45265 0.1054687,2.14382 0,0.83176 0,1.58151 -0.1171875,2.2844 -0.1640625,1.04262 -0.796875,1.37064 -1.2890623,1.37064 z m -4.1982422,-35.35838 v 0.35145 c 0,2.57727 -1.1484375,3.08101 -1.7929687,3.08101 -0.1757813,0 -0.7734375,-0.0234 -1.078125,-0.38659 0.4921875,0 0.5742187,-0.32802 0.5742187,-0.51546 0,-0.33973 -0.2578125,-0.50374 -0.5039062,-0.50374 -0.1757813,0 -0.50390629,0.10544 -0.50390629,0.52717 0,0.73804 0.59765629,1.19492 1.52343749,1.19492 1.4296875,0 2.765625,-1.4995 2.765625,-3.8659 0,-2.96386 -1.265625,-3.7019 -2.2382812,-3.7019 -0.609375,0 -1.1484375,0.19915 -1.6171875,0.69118 -0.45703129,0.49202 -0.71484379,0.9489 -0.71484379,1.78065 0,1.37064 0.97265629,2.44841 2.20312499,2.44841 0.6796875,0 1.125,-0.45688 1.3828125,-1.1012 z m -1.3710937,0.85519 c -0.1757813,0 -0.6796875,0 -1.0195313,-0.69118 -0.1992187,-0.41002 -0.1992187,-0.96062 -0.1992187,-1.4995 0,-0.59746 0,-1.11291 0.234375,-1.52293 0.2929687,-0.5506 0.7148437,-0.69118 1.1015625,-0.69118 0.5039062,0 0.8671875,0.37488 1.0546875,0.8669 0.1289062,0.35145 0.1757812,1.04262 0.1757812,1.55808 0,0.91376 -0.375,1.97981 -1.3476562,1.97981 z m 7.8896484,-0.8669 c 0,-0.89033 -0.05859,-1.76894 -0.445312,-2.57727 -0.5039067,-1.05434 -1.4062505,-1.23006 -1.8632817,-1.23006 -0.6679688,0 -1.4648438,0.28116 -1.921875,1.30035 -0.3515625,0.76146 -0.3984375,1.61665 -0.3984375,2.50698 0,0.82004 0.035156,1.80409 0.4921875,2.64756 0.46875,0.89033 1.2773437,1.11291 1.8164062,1.11291 0.5976563,0 1.4296875,-0.2343 1.9101565,-1.27692 0.351562,-0.76147 0.410156,-1.61665 0.410156,-2.48355 z m -2.3203125,3.51446 c -0.4335937,0 -1.078125,-0.26945 -1.2773437,-1.3355 -0.1171875,-0.65603 -0.1171875,-1.66351 -0.1171875,-2.31954 0,-0.70289 0,-1.42921 0.082031,-2.02667 0.2109375,-1.30035 1.03125,-1.40578 1.3125,-1.40578 0.3632813,0 1.0898438,0.19915 1.3007813,1.28863 0.1054687,0.62089 0.1054687,1.45264 0.1054687,2.14382 0,0.83176 0,1.58151 -0.1171875,2.2844 -0.1640625,1.04262 -0.796875,1.37064 -1.2890623,1.37064 z m 0,0"
       style="fill:#212121;fill-opacity:1;fill-rule:nonzero;stroke:none"
       aria-label="10&#10;20&#10;30&#10;40&#10;50&#10;60&#10;70&#10;80&#10;90"
       transform="matrix(1.3333333,0,0,1.3337761,24.918267,374.66147)" />
    <path
       id="path60"
       d="m 8.5773687,-12.161399 c -0.1992187,-0.468594 -0.421875,-0.468594 -0.7265625,-0.468594 -0.5039062,0 -0.5742187,0.140578 -0.703125,0.468594 L 2.6594,-1.2665794 C 2.5539312,-0.99713759 2.4953375,-0.85655928 1.1242437,-0.85655928 H 0.737525 v 0.85518474 c 0.6914062,-0.02342972 1.5585937,-0.0585743 2.1210937,-0.0585743 0.703125,0 1.7226563,0 2.390625,0.0585743 v -0.85518474 c -0.035156,0 -1.6171875,0 -1.6171875,-0.23429722 0,-0.011715 0.058594,-0.1991526 0.082031,-0.2108674 l 0.9023437,-2.1906787 h 4.8515625 l 1.0781256,2.63584332 H 8.8234625 v 0.85518474 c 0.6914062,-0.0585743 2.4140625,-0.0585743 3.1874995,-0.0585743 0.726563,0 2.320313,0 2.953125,0.0585743 v -0.85518474 h -1.757812 z m -1.5351562,2.788137 2.0625,5.0256746 h -4.125 z m 17.8476565,2.5655542 c 0.117187,-0.2577269 0.1875,-0.3748755 1.347656,-0.3748755 v -0.8551848 c -0.457031,0.035145 -0.984375,0.058574 -1.429688,0.058574 -0.457031,0 -1.277343,-0.035145 -1.652343,-0.058574 v 0.8551848 c 0.339843,0 0.867187,0.046859 0.867187,0.1991526 0,0.011715 0,0.035145 -0.09375,0.2108674 L 21.831275,-2.2506275 19.5344,-7.1825833 h 0.984375 v -0.8551848 c -0.597656,0.035145 -2.226563,0.058574 -2.25,0.058574 -0.503906,0 -1.324219,-0.035145 -2.0625,-0.058574 v 0.8551848 h 1.160156 l 3.164063,6.80633326 c 0.222656,0.44516465 0.457031,0.44516465 0.691406,0.44516465 0.304687,0 0.492187,-0.04685943 0.667969,-0.43344979 z m 9.606445,2.8584256 c 0.398438,0 0.585938,0 0.585938,-0.492024 0,-0.5505984 -0.117188,-1.8743775 -1.019532,-2.7764217 -0.667968,-0.6560321 -1.628906,-0.9840482 -2.871093,-0.9840482 -2.894532,0 -4.476563,1.8626626 -4.476563,4.1236305 0,2.4249759 1.816406,4.18220479 4.722656,4.18220479 2.859375,0 3.644532,-1.90952209 3.644532,-2.22582329 0,-0.3280161 -0.351563,-0.3280161 -0.433594,-0.3280161 -0.316406,0 -0.351563,0.093719 -0.457031,0.3865904 -0.375,0.8668996 -1.40625,1.44092771 -2.589844,1.44092771 -2.542969,0 -2.566406,-2.40154621 -2.566406,-3.32702011 z M 29.035377,-4.54674 c 0.03516,-0.7028915 0.05859,-1.4643574 0.433593,-2.0618152 0.46875,-0.7263213 1.195313,-0.9371888 1.722657,-0.9371888 2.109375,0 2.15625,2.3664016 2.167968,2.999004 z m 12.09375,4.54536546 V -0.85655928 H 39.547095 V -4.0195713 c 0,-1.2652048 0.457032,-3.4793132 2.261719,-3.4793132 -0.01172,0.02343 -0.339844,0.3163012 -0.339844,0.831755 0,0.749751 0.574219,1.1129116 1.101563,1.1129116 0.527344,0 1.101562,-0.3865903 1.101562,-1.1129116 0,-0.9489036 -0.972656,-1.4760723 -1.910156,-1.4760723 -1.265625,0 -1.992187,0.9020442 -2.414062,2.0383855 v -2.0383855 l -3,0.1405783 v 0.8551847 c 1.125,0 1.253906,0 1.253906,0.7028916 v 5.58798792 h -1.253906 v 0.85518474 c 0.632812,-0.02342972 1.453125,-0.0585743 2.285156,-0.0585743 0.679687,0 1.839844,0 2.496094,0.0585743 z m 9.884765,-1.39406826 c 0,0.56231324 0,1.39406826 1.886719,1.39406826 h 0.867187 c 0.363282,0 0.585938,0 0.585938,-0.4334498 0,-0.42173494 -0.246094,-0.42173494 -0.480469,-0.42173494 -1.101562,-0.0117149 -1.101562,-0.24601202 -1.101562,-0.66774702 v -3.8893333 c 0,-1.6049357 -1.277344,-2.7881365 -3.972657,-2.7881365 -1.03125,0 -3.246093,0.070289 -3.246093,1.66351 0,0.7966105 0.632812,1.1480562 1.125,1.1480562 0.5625,0 1.136718,-0.3865903 1.136718,-1.1480562 0,-0.5388835 -0.339843,-0.8434698 -0.398437,-0.8786144 0.503906,-0.1171486 1.089844,-0.1288635 1.300781,-0.1288635 1.359375,0 1.992188,0.7614659 1.992188,2.1321044 v 0.6208876 c -1.277344,0.046859 -5.882813,0.2108674 -5.882813,2.8349959 0,1.73379923 2.25,2.06181529 3.492188,2.06181529 1.453125,0 2.296875,-0.73803614 2.695312,-1.49950199 z m -0.304687,-2.8467108 v 1.7220843 c 0,1.74551404 -1.664063,1.97981123 -2.109375,1.97981123 -0.925782,0 -1.652344,-0.63260243 -1.652344,-1.42921283 0,-1.9563815 2.859375,-2.2141084 3.761719,-2.2726827 z m 8.276367,0.7966104 c -1.59375,0 -1.59375,-1.2066305 -1.59375,-2.0266707 0,-0.8083253 0,-2.0266706 1.59375,-2.0266706 1.59375,0 1.59375,1.2183453 1.59375,2.0266706 0,0.8200402 0,2.0266707 -1.59375,2.0266707 z m -2.214844,0.1874378 c 0.832031,0.4334497 1.757813,0.4685943 2.214844,0.4685943 2.601562,0 3.597656,-1.4057831 3.597656,-2.6827028 0,-0.8434698 -0.457031,-1.4409277 -0.726562,-1.7337992 0.550781,-0.2928714 0.925781,-0.328016 1.125,-0.3397309 -0.03516,0.082004 -0.07031,0.2460121 -0.07031,0.3631607 0,0.4451646 0.304688,0.7731807 0.773438,0.7731807 0.46875,0 0.785156,-0.3397309 0.785156,-0.7731807 0,-0.421735 -0.316406,-1.0543374 -1.148438,-1.0543374 -0.269531,0 -1.113281,0.058574 -1.910156,0.6911767 -0.328125,-0.2225823 -1.089844,-0.5974578 -2.425781,-0.5974578 -2.613281,0 -3.609375,1.4057831 -3.609375,2.6709879 0,0.749751 0.363281,1.4877872 0.949219,1.9095221 -0.503907,0.6326024 -0.621094,1.2300602 -0.621094,1.6049357 0,0.2694418 0.07031,1.15977112 0.796875,1.73379923 -0.234375,0.0585743 -1.558594,0.44516465 -1.558594,1.58150597 0,0.9254739 0.996094,2.2843976 4.617188,2.2843976 3.199218,0 4.617187,-1.077767 4.617187,-2.3429719 0,-0.53888348 -0.152344,-1.67522484 -1.359375,-2.29611239 -1.007812,-0.50373891 -2.097656,-0.50373891 -3.832031,-0.50373891 -0.46875,0 -1.300781,0 -1.394531,-0.02343 -0.796875,-0.1288634 -0.996094,-0.8083253 -0.996094,-1.1363413 0,-0.1874378 0.07031,-0.4568795 0.175781,-0.5974578 z m 1.125,3.49102804 h 2.121094 c 0.5625,0 2.601562,0 2.601562,1.12462646 0,0.6443173 -0.703125,1.6283655 -3.058593,1.6283655 -2.167969,0 -3.058594,-0.831755 -3.058594,-1.66351 0,-1.08948196 1.136719,-1.08948196 1.394531,-1.08948196 z M 73.133033,-3.9492822 c 0.398437,0 0.585937,0 0.585937,-0.492024 0,-0.5505984 -0.117187,-1.8743775 -1.019531,-2.7764217 -0.667969,-0.6560321 -1.628906,-0.9840482 -2.871094,-0.9840482 -2.894531,0 -4.476562,1.8626626 -4.476562,4.1236305 0,2.4249759 1.816406,4.18220479 4.722656,4.18220479 2.859375,0 3.644531,-1.90952209 3.644531,-2.22582329 0,-0.3280161 -0.351562,-0.3280161 -0.433593,-0.3280161 -0.316407,0 -0.351563,0.093719 -0.457032,0.3865904 -0.375,0.8668996 -1.40625,1.44092771 -2.589843,1.44092771 -2.542969,0 -2.566407,-2.40154621 -2.566407,-3.32702011 z M 67.672095,-4.54674 c 0.03516,-0.7028915 0.05859,-1.4643574 0.433594,-2.0618152 0.46875,-0.7263213 1.195313,-0.9371888 1.722656,-0.9371888 2.109375,0 2.15625,2.3664016 2.167969,2.999004 z M 86.37815,-6.5382661 v -5.0256749 h 2.132812 c 2.917969,0 2.953125,1.405783 2.953125,2.518695 0,1.0074779 0,2.5069799 -2.988281,2.5069799 z m 4.828125,0.3865904 c 2.097656,-0.5505984 3.023437,-1.7220843 3.023437,-2.917 0,-1.8275183 -1.992187,-3.3504493 -5.390625,-3.3504493 h -6.878906 v 0.855184 h 1.957031 v 10.70738172 h -1.957031 v 0.85518474 c 0.65625,-0.0585743 2.425781,-0.0585743 3.1875,-0.0585743 0.761719,0 2.53125,0 3.1875,0.0585743 V -0.85655928 H 86.37815 V -5.8822339 h 2.121094 c 0.246093,0 1.042968,0 1.605468,0.6091726 0.574219,0.6326024 0.574219,0.9840482 0.574219,2.3078273 0,1.1949157 0,2.07353014 1.277344,2.69441769 0.785156,0.39830522 1.910156,0.46859438 2.648437,0.46859438 1.945313,0 2.179688,-1.62836547 2.179688,-1.92123697 0,-0.3983052 -0.257813,-0.3983052 -0.433594,-0.3983052 -0.386719,0 -0.398437,0.1874378 -0.421875,0.4217349 -0.09375,0.84346992 -0.609375,1.24177514 -1.160156,1.24177514 -1.078125,0 -1.242188,-1.27691964 -1.335938,-2.03838554 -0.03516,-0.1991526 -0.175781,-1.4526426 -0.199218,-1.5463614 -0.246094,-1.2652048 -1.242188,-1.8275181 -2.027344,-2.1086747 z m 14.012695,2.2023935 c 0.39844,0 0.58594,0 0.58594,-0.492024 0,-0.5505984 -0.11719,-1.8743775 -1.01953,-2.7764217 -0.66797,-0.6560321 -1.62891,-0.9840482 -2.8711,-0.9840482 -2.894528,0 -4.47656,1.8626626 -4.47656,4.1236305 0,2.4249759 1.816407,4.18220479 4.72266,4.18220479 2.85937,0 3.64453,-1.90952209 3.64453,-2.22582329 0,-0.3280161 -0.35156,-0.3280161 -0.4336,-0.3280161 -0.3164,0 -0.35156,0.093719 -0.45703,0.3865904 -0.375,0.8668996 -1.40625,1.44092771 -2.58984,1.44092771 -2.54297,0 -2.566407,-2.40154621 -2.566407,-3.32702011 z M 99.758033,-4.54674 c 0.03516,-0.7028915 0.05859,-1.4643574 0.433597,-2.0618152 0.46875,-0.7263213 1.19531,-0.9371888 1.72265,-0.9371888 2.10938,0 2.15625,2.3664016 2.16797,2.999004 z m 10.570317,-2.6358433 h 2.63671 v -0.8551848 h -2.63671 v -3.4558839 h -0.85547 c -0.0117,1.8040888 -0.90235,3.5964622 -2.69532,3.6550365 v 0.6560322 h 1.48829 v 4.9553855 c 0,1.93295177 1.57031,2.33125699 2.85937,2.33125699 1.37109,0 2.19141,-1.03090762 2.19141,-2.35468669 v -0.9489037 h -0.85547 v 0.9137591 c 0,1.2300602 -0.57422,1.66351001 -1.07813,1.66351001 -1.05468,0 -1.05468,-1.14805621 -1.05468,-1.56979111 z m 12.08789,5.8808594 v 1.40578309 l 3.21093,-0.10543373 v -0.85518474 c -1.125,0 -1.2539,0 -1.2539,-0.70289152 v -6.583751 l -3.31641,0.1405783 v 0.8551847 c 1.125,0 1.25391,0 1.25391,0.7028916 v 3.4558835 c 0,1.4877872 -0.92578,2.44840563 -2.23828,2.44840563 -1.39454,0 -1.45313,-0.45687952 -1.45313,-1.42921283 v -6.1737309 l -3.31641,0.1405783 v 0.8551847 c 1.125,0 1.25391,0 1.25391,0.7028916 v 4.2173494 c 0,1.93295177 1.46484,2.33125699 3.25781,2.33125699 0.46875,0 1.76953,0 2.60157,-1.40578309 z m 9.08789,1.30034936 V -0.85655928 H 129.9221 V -4.0195713 c 0,-1.2652048 0.45703,-3.4793132 2.26171,-3.4793132 -0.0117,0.02343 -0.33984,0.3163012 -0.33984,0.831755 0,0.749751 0.57422,1.1129116 1.10156,1.1129116 0.52735,0 1.10157,-0.3865903 1.10157,-1.1129116 0,-0.9489036 -0.97266,-1.4760723 -1.91016,-1.4760723 -1.26563,0 -1.99219,0.9020442 -2.41406,2.0383855 v -2.0383855 l -3,0.1405783 v 0.8551847 c 1.125,0 1.2539,0 1.2539,0.7028916 v 5.58798792 h -1.2539 v 0.85518474 c 0.63281,-0.02342972 1.45312,-0.0585743 2.28515,-0.0585743 0.67969,0 1.83985,0 2.4961,0.0585743 z m 3.93457,-0.85518474 v 0.85518474 c 0.51562,-0.02342972 1.59375,-0.0585743 2.28515,-0.0585743 0.70313,0 1.76953,0.03514458 2.28516,0.0585743 V -0.85655928 H 138.7551 V -4.6404589 c 0,-1.9680963 1.5586,-2.8584256 2.69532,-2.8584256 0.62109,0 0.99609,0.3865903 0.99609,1.7572289 v 4.88509632 h -1.25391 v 0.85518474 c 0.51563,-0.02342972 1.59375,-0.0585743 2.28516,-0.0585743 0.70312,0 1.76953,0.03514458 2.28516,0.0585743 v -0.85518474 h -1.25391 V -5.542503 c 0,-1.8978072 -0.97266,-2.6006988 -2.78906,-2.6006988 -1.73438,0 -2.69532,1.0309076 -3.16407,1.9563815 v -1.9563815 l -3.11718,0.1405783 v 0.8551847 c 1.125,0 1.2539,0 1.2539,0.7028916 v 5.58798792 z M 155.78538,-11.563941 v 10.70738172 h -1.95703 v 0.85518474 h 7.80468 c 3.5625,0 6.26953,-2.22582326 6.26953,-6.10344176 0,-3.9830517 -2.70703,-6.3143087 -6.29296,-6.3143087 h -7.78125 v 0.855184 z m 2.46093,10.70738172 V -11.563941 h 2.63672 c 1.19532,0 2.69532,0.339731 3.58594,1.604936 0.63281,0.9254739 0.77344,2.1555341 0.77344,3.8424739 0,1.9680963 -0.21094,2.9287148 -0.78516,3.748755 -0.8789,1.2300602 -2.46094,1.51121682 -3.57422,1.51121682 z m 18.76758,-0.44516462 v 1.40578309 l 3.21094,-0.10543373 v -0.85518474 c -1.125,0 -1.25391,0 -1.25391,-0.70289152 v -6.583751 l -3.3164,0.1405783 v 0.8551847 c 1.125,0 1.2539,0 1.2539,0.7028916 v 3.4558835 c 0,1.4877872 -0.92578,2.44840563 -2.23828,2.44840563 -1.39453,0 -1.45312,-0.45687952 -1.45312,-1.42921283 v -6.1737309 l -3.31641,0.1405783 v 0.8551847 c 1.125,0 1.25391,0 1.25391,0.7028916 v 4.2173494 c 0,1.93295177 1.46484,2.33125699 3.25781,2.33125699 0.46875,0 1.76953,0 2.60156,-1.40578309 z m 9.08789,1.30034936 v -0.85518474 h -1.58203 V -4.0195713 c 0,-1.2652048 0.45703,-3.4793132 2.26172,-3.4793132 -0.0117,0.02343 -0.33984,0.3163012 -0.33984,0.831755 0,0.749751 0.57422,1.1129116 1.10156,1.1129116 0.52734,0 1.10156,-0.3865903 1.10156,-1.1129116 0,-0.9489036 -0.97265,-1.4760723 -1.91015,-1.4760723 -1.26563,0 -1.99219,0.9020442 -2.41407,2.0383855 v -2.0383855 l -3,0.1405783 v 0.8551847 c 1.125,0 1.25391,0 1.25391,0.7028916 v 5.58798792 h -1.25391 v 0.85518474 c 0.63282,-0.02342972 1.45313,-0.0585743 2.28516,-0.0585743 0.67969,0 1.83984,0 2.49609,0.0585743 z m 7.17188,-8.14182726 -3.15235,0.1405783 v 0.8551847 c 1.06641,0 1.19532,0 1.19532,0.7028916 v 5.58798792 h -1.24219 v 0.85518474 c 0.55078,-0.02342972 1.44141,-0.0585743 2.20312,-0.0585743 0.53907,0 1.46485,0.03514458 2.1211,0.0585743 v -0.85518474 h -1.125 z m 0.17578,-3.0224342 c 0,-0.79661 -0.64453,-1.417498 -1.40625,-1.417498 -0.78516,0 -1.41797,0.632603 -1.41797,1.417498 0,0.773181 0.63281,1.4057836 1.41797,1.4057836 0.76172,0 1.40625,-0.6091726 1.40625,-1.4057836 z m 2.36133,10.30907672 v 0.85518474 c 0.51562,-0.02342972 1.59375,-0.0585743 2.28515,-0.0585743 0.70313,0 1.76953,0.03514458 2.28516,0.0585743 v -0.85518474 h -1.25391 V -4.6404589 c 0,-1.9680963 1.5586,-2.8584256 2.69532,-2.8584256 0.62109,0 0.99609,0.3865903 0.99609,1.7572289 v 4.88509632 h -1.25391 v 0.85518474 c 0.51563,-0.02342972 1.59375,-0.0585743 2.28516,-0.0585743 0.70312,0 1.76953,0.03514458 2.28516,0.0585743 v -0.85518474 h -1.25391 V -5.542503 c 0,-1.8978072 -0.97266,-2.6006988 -2.78906,-2.6006988 -1.73438,0 -2.69532,1.0309076 -3.16407,1.9563815 v -1.9563815 l -3.11718,0.1405783 v 0.8551847 c 1.125,0 1.2539,0 1.2539,0.7028916 v 5.58798792 z m 15.36914,-2.58898392 c -1.59375,0 -1.59375,-1.2066305 -1.59375,-2.0266707 0,-0.8083253 0,-2.0266706 1.59375,-2.0266706 1.59375,0 1.59375,1.2183453 1.59375,2.0266706 0,0.8200402 0,2.0266707 -1.59375,2.0266707 z m -2.21485,0.1874378 c 0.83204,0.4334497 1.75782,0.4685943 2.21485,0.4685943 2.60156,0 3.59765,-1.4057831 3.59765,-2.6827028 0,-0.8434698 -0.45703,-1.4409277 -0.72656,-1.7337992 0.55078,-0.2928714 0.92578,-0.328016 1.125,-0.3397309 -0.0351,0.082004 -0.0703,0.2460121 -0.0703,0.3631607 0,0.4451646 0.30469,0.7731807 0.77344,0.7731807 0.46875,0 0.78515,-0.3397309 0.78515,-0.7731807 0,-0.421735 -0.3164,-1.0543374 -1.14843,-1.0543374 -0.26954,0 -1.11329,0.058574 -1.91016,0.6911767 -0.32813,-0.2225823 -1.08984,-0.5974578 -2.42578,-0.5974578 -2.61328,0 -3.60938,1.4057831 -3.60938,2.6709879 0,0.749751 0.36328,1.4877872 0.94922,1.9095221 -0.5039,0.6326024 -0.62109,1.2300602 -0.62109,1.6049357 0,0.2694418 0.0703,1.15977112 0.79687,1.73379923 -0.23437,0.0585743 -1.55859,0.44516465 -1.55859,1.58150597 0,0.9254739 0.99609,2.2843976 4.61719,2.2843976 3.19922,0 4.61718,-1.077767 4.61718,-2.3429719 0,-0.53888348 -0.15234,-1.67522484 -1.35937,-2.29611239 -1.00781,-0.50373891 -2.09766,-0.50373891 -3.83203,-0.50373891 -0.46875,0 -1.30078,0 -1.39453,-0.02343 -0.79688,-0.1288634 -0.9961,-0.8083253 -0.9961,-1.1363413 0,-0.1874378 0.0703,-0.4568795 0.17578,-0.5974578 z m 1.125,3.49102804 h 2.1211 c 0.5625,0 2.60156,0 2.60156,1.12462646 0,0.6443173 -0.70312,1.6283655 -3.05859,1.6283655 -2.16797,0 -3.0586,-0.831755 -3.0586,-1.66351 0,-1.08948196 1.13672,-1.08948196 1.39453,-1.08948196 z m 26.90039,-5.18968274 h -0.84375 c -0.39843,2.4952651 -0.90234,4.10020082 -4.2539,4.10020082 h -2.75391 V -5.9525231 h 0.9961 c 1.73437,0 1.92187,0.7731807 1.92187,2.1086747 h 0.84375 v -5.084249 h -0.84375 c 0,1.3472088 -0.16406,2.1203896 -1.92187,2.1203896 h -0.9961 v -4.6507992 h 2.75391 c 2.90625,0 3.38672,1.323779 3.66797,3.5144578 h 0.85547 l -0.5625,-4.3696428 h -11.23829 v 0.855185 h 1.95704 v 10.60194772 h -1.95704 v 0.85518474 h 11.54297 z m 9.74707,-1.8509477 c 0.11719,-0.2577269 0.1875,-0.3748755 1.34766,-0.3748755 v -0.8551848 c -0.45703,0.035145 -0.98437,0.058574 -1.42969,0.058574 -0.45703,0 -1.27734,-0.035145 -1.65234,-0.058574 v 0.8551848 c 0.33984,0 0.86719,0.046859 0.86719,0.1991526 0,0.011715 0,0.035145 -0.0937,0.2108674 l -2.09766,4.5219358 -2.29687,-4.9319558 h 0.98437 v -0.8551848 c -0.59766,0.035145 -2.22656,0.058574 -2.25,0.058574 -0.50391,0 -1.32422,-0.035145 -2.0625,-0.058574 v 0.8551848 h 1.16016 l 3.16406,6.80633326 c 0.22266,0.44516465 0.45703,0.44516465 0.69141,0.44516465 0.30468,0 0.49218,-0.04685943 0.66796,-0.43344979 z m 7.43555,5.412265 c 0,0.56231324 0,1.39406826 1.88672,1.39406826 h 0.86719 c 0.36328,0 0.58594,0 0.58594,-0.4334498 0,-0.42173494 -0.2461,-0.42173494 -0.48047,-0.42173494 -1.10157,-0.0117149 -1.10157,-0.24601202 -1.10157,-0.66774702 v -3.8893333 c 0,-1.6049357 -1.27734,-2.7881365 -3.97265,-2.7881365 -1.03125,0 -3.2461,0.070289 -3.2461,1.66351 0,0.7966105 0.63282,1.1480562 1.125,1.1480562 0.5625,0 1.13672,-0.3865903 1.13672,-1.1480562 0,-0.5388835 -0.33984,-0.8434698 -0.39843,-0.8786144 0.5039,-0.1171486 1.08984,-0.1288635 1.30078,-0.1288635 1.35937,0 1.99218,0.7614659 1.99218,2.1321044 v 0.6208876 c -1.27734,0.046859 -5.88281,0.2108674 -5.88281,2.8349959 0,1.73379923 2.25,2.06181529 3.49219,2.06181529 1.45312,0 2.29687,-0.73803614 2.69531,-1.49950199 z m -0.30469,-2.8467108 v 1.7220843 c 0,1.74551404 -1.66406,1.97981123 -2.10937,1.97981123 -0.92578,0 -1.65234,-0.63260243 -1.65234,-1.42921283 0,-1.9563815 2.85937,-2.2141084 3.76171,-2.2726827 z m 7.71094,-8.3175504 -3.19922,0.140579 v 0.855184 c 1.11328,0 1.24219,0 1.24219,0.702892 v 10.00448972 h -1.24219 v 0.85518474 c 0.57422,-0.02342972 1.44141,-0.0585743 2.21485,-0.0585743 0.78515,0 1.61718,0.03514458 2.22656,0.0585743 v -0.85518474 h -1.24219 z m 9.64746,11.2579801 v 1.40578309 l 3.21094,-0.10543373 v -0.85518474 c -1.125,0 -1.25391,0 -1.25391,-0.70289152 v -6.583751 l -3.3164,0.1405783 v 0.8551847 c 1.125,0 1.2539,0 1.2539,0.7028916 v 3.4558835 c 0,1.4877872 -0.92578,2.44840563 -2.23828,2.44840563 -1.39453,0 -1.45312,-0.45687952 -1.45312,-1.42921283 v -6.1737309 l -3.31641,0.1405783 v 0.8551847 c 1.125,0 1.25391,0 1.25391,0.7028916 v 4.2173494 c 0,1.93295177 1.46484,2.33125699 3.25781,2.33125699 0.46875,0 1.76953,0 2.60156,-1.40578309 z m 10.40918,-0.093719 c 0,0.56231324 0,1.39406826 1.88672,1.39406826 h 0.86719 c 0.36328,0 0.58594,0 0.58594,-0.4334498 0,-0.42173494 -0.2461,-0.42173494 -0.48047,-0.42173494 -1.10157,-0.0117149 -1.10157,-0.24601202 -1.10157,-0.66774702 v -3.8893333 c 0,-1.6049357 -1.27734,-2.7881365 -3.97265,-2.7881365 -1.03125,0 -3.2461,0.070289 -3.2461,1.66351 0,0.7966105 0.63282,1.1480562 1.125,1.1480562 0.5625,0 1.13672,-0.3865903 1.13672,-1.1480562 0,-0.5388835 -0.33984,-0.8434698 -0.39843,-0.8786144 0.5039,-0.1171486 1.08984,-0.1288635 1.30078,-0.1288635 1.35937,0 1.99218,0.7614659 1.99218,2.1321044 v 0.6208876 c -1.27734,0.046859 -5.88281,0.2108674 -5.88281,2.8349959 0,1.73379923 2.25,2.06181529 3.49219,2.06181529 1.45312,0 2.29687,-0.73803614 2.69531,-1.49950199 z m -0.30469,-2.8467108 v 1.7220843 c 0,1.74551404 -1.66406,1.97981123 -2.10937,1.97981123 -0.92578,0 -1.65234,-0.63260243 -1.65234,-1.42921283 0,-1.9563815 2.85937,-2.2141084 3.76171,-2.2726827 z m 7.58497,-2.9404297 h 2.63671 v -0.8551848 h -2.63671 v -3.4558838 h -0.85547 c -0.0117,1.8040887 -0.90235,3.5964621 -2.69532,3.6550364 v 0.6560322 h 1.48829 v 4.9553855 c 0,1.93295177 1.57031,2.33125699 2.85937,2.33125699 1.37109,0 2.19141,-1.03090762 2.19141,-2.35468669 v -0.9489037 h -0.85547 v 0.9137591 c 0,1.2300602 -0.57422,1.66351001 -1.07813,1.66351001 -1.05468,0 -1.05468,-1.14805621 -1.05468,-1.56979111 z m 8.2207,-0.9606185 -3.15234,0.1405783 v 0.8551847 c 1.0664,0 1.19531,0 1.19531,0.7028916 v 5.58798792 h -1.24219 v 0.85518474 c 0.55078,-0.02342972 1.44141,-0.0585743 2.20313,-0.0585743 0.53906,0 1.46484,0.03514458 2.12109,0.0585743 v -0.85518474 h -1.125 z m 0.17578,-3.0224341 c 0,-0.79661 -0.64453,-1.417498 -1.40625,-1.417498 -0.78516,0 -1.41797,0.632603 -1.41797,1.417498 0,0.773181 0.63281,1.4057835 1.41797,1.4057835 0.76172,0 1.40625,-0.6091725 1.40625,-1.4057835 z m 11.3584,7.2163537 c 0,-2.4249758 -1.66406,-4.2524939 -4.61719,-4.2524939 -2.96484,0 -4.61719,1.8509478 -4.61719,4.2524939 0,2.249253 1.59375,4.05334139 4.61719,4.05334139 3.04688,0 4.61719,-1.82751809 4.61719,-4.05334139 z m -4.61719,3.32702011 c -2.29687,0 -2.29687,-1.94466661 -2.29687,-3.52617271 0,-0.8083253 0,-1.7337991 0.30468,-2.3546867 0.35157,-0.667747 1.10157,-1.0426225 1.99219,-1.0426225 0.76172,0 1.52344,0.2811566 1.92188,0.9254739 0.375,0.6091727 0.375,1.6049357 0.375,2.4718353 0,1.5815061 0,3.52617271 -2.29688,3.52617271 z m 6.02637,-0.23429719 v 0.85518474 c 0.51562,-0.02342972 1.59375,-0.0585743 2.28515,-0.0585743 0.70313,0 1.76954,0.03514458 2.28516,0.0585743 V -0.85655928 H 313.3967 V -4.6404589 c 0,-1.9680963 1.5586,-2.8584256 2.69532,-2.8584256 0.62109,0 0.99609,0.3865903 0.99609,1.7572289 v 4.88509632 h -1.25391 v 0.85518474 c 0.51563,-0.02342972 1.59375,-0.0585743 2.28516,-0.0585743 0.70313,0 1.76953,0.03514458 2.28516,0.0585743 v -0.85518474 h -1.25391 V -5.542503 c 0,-1.8978072 -0.97266,-2.6006988 -2.78906,-2.6006988 -1.73438,0 -2.69531,1.0309076 -3.16406,1.9563815 v -1.9563815 l -3.11719,0.1405783 v 0.8551847 c 1.125,0 1.2539,0 1.2539,0.7028916 v 5.58798792 z m 0,0"
       style="fill:#212121;fill-opacity:1;fill-rule:nonzero;stroke:none"
       aria-label="AverageReturnDuringEvaluation"
       transform="matrix(1.3333333,0,0,1.3337761,48.704133,18.189333)" />
    <path
       id="path61"
       d="m 355.188,-538.032 16.307,-1204.478 16.312,-591 16.307,-259.25 16.307,-58.22 16.312,-14.64 16.307,-20.38 16.307,-13.65 16.312,-10.21 16.307,-5.56 16.308,5.61 16.311,-6.18 16.307,-13.34 16.308,18.84 16.307,-19.17 16.311,18.34 16.308,-31.25 16.307,6.83 16.311,-4.44 16.308,10.52 16.307,3.84 16.312,-9.84 16.307,2.31 16.307,1.24 16.308,-14.98 16.311,0.44 16.307,-7.78 16.308,3.57 16.311,-0.83 16.307,12.36 16.308,-19.01 16.311,3.42 16.308,3.47 16.307,5.82 16.307,-5.98 16.312,-1.66 16.307,-8.04 16.307,1.68 16.312,6.1 16.307,1.51 16.307,-0.7 16.31,16.03 16.31,-25.94 16.31,8.11 16.31,-4.34 16.31,-9.14 16.3,24.92 16.31,-25.78 16.31,6.46 16.31,4.28 16.31,-4.62 16.31,7.97 16.3,-3.19 16.31,0.82 16.31,2.84 16.31,3.42 16.31,-13.97 16.31,8.79 16.31,-9.81 16.3,23.67 16.31,-1.69 16.31,-0.17 16.31,-17.99 16.31,1.63 16.31,4.06 16.31,-2.08 16.3,-3.81 16.31,3.81 16.31,1.06 16.31,9.43 16.31,-8.51 16.31,6.25 16.31,-4.27 16.3,15.75 16.31,-17.59 16.31,-3.42 16.31,2.6 16.31,2.16 16.31,-11.04 16.31,19.23 16.3,-4.08 16.31,-8.3 16.31,6.95 16.31,3.06 16.31,-10.44 16.31,17.31 16.31,3.74 16.31,-5.97 16.3,-13.23 16.31,-5.04 16.31,11.54 16.31,12.28 16.31,-7.88 16.3,-0.36 16.32,-11.47 16.3,11.14 16.31,-11.81 16.31,5.84 16.31,-6.54 16.31,-3.54 16.3,4.19 16.32,11.33 16.3,-11.46 16.31,5.82 16.31,30.69 16.31,-33.43 16.31,0.16 16.31,-3.72 16.31,20.45 16.3,-20.4 16.31,8.28 16.31,-10.57 16.31,11.67 16.31,0.15 16.31,1.43 16.3,-1.85 16.31,-1.24 16.31,-7.09 16.31,13.57 16.31,3.99 16.31,-13.96 16.31,1.1 16.3,0.35 16.31,10.52 16.31,-13.1 16.31,16.09 16.31,-11.88 16.31,15.21 16.31,-6.61 16.3,-16.7 16.32,3.07 16.3,1.81 16.31,2.28 16.31,-0.4 16.31,-0.09 16.31,16.18 16.3,-16.4 16.32,-1.68 16.3,0.98 16.31,-2.82 16.31,0.25 16.31,5.28 16.31,1.4 16.3,-3.89 16.31,8.07 16.31,-12.28 16.31,-11.65 16.31,16.47 16.31,-6.17 16.31,-6.16 16.31,5.23 16.3,16.69 16.31,-19.95 16.31,4.79 16.31,2.51 16.31,-1.47 16.31,7.99 16.31,14.54 16.3,-16.19 16.31,3.79 16.31,-12.61 16.31,0.36 16.31,2.73 16.31,-6.83 16.31,16.55 16.3,1.89 16.31,5.55 16.31,-8.06 16.31,1.34 16.31,-12.64 16.31,10.91 16.31,-2.77 16.3,-1.74 16.31,6.57 16.31,6.62 16.31,-7.85 16.31,-5.3 16.31,6.57 16.31,-0.62 16.3,-7.41 16.31,8.68 16.31,-17.03 16.31,-1.51 16.31,0.54 16.31,2.2 16.3,4.66 16.32,4.01 16.3,-8.28 16.31,4.12 16.31,5.27 16.31,10.19 16.31,-6.3 16.3,0.94 16.32,-9.36 16.3,-5.75 16.31,2.56 16.31,10.34 16.31,-4.08 16.31,-4.64"
       style="fill:none;stroke:#ffad36;stroke-width:18.0006;stroke-linecap:butt;stroke-linejoin:round;stroke-miterlimit:10;stroke-dasharray:none;stroke-opacity:1"
       transform="matrix(0.1333112,0,0,0.133356,0,414.66667)" />
  </g>
</svg>
